<?xml version="1.0" encoding="utf-8" standalone="no"?>
<!DOCTYPE svg PUBLIC "-//W3C//DTD SVG 1.1//EN"
  "http://www.w3.org/Graphics/SVG/1.1/DTD/svg11.dtd">
<!-- Created with matplotlib (https://matplotlib.org/) -->
<svg height="1042.896583pt" version="1.1" viewBox="0 0 735.323437 1042.896583" width="735.323437pt" xmlns="http://www.w3.org/2000/svg" xmlns:xlink="http://www.w3.org/1999/xlink">
 <defs>
  <style type="text/css">
*{stroke-linecap:butt;stroke-linejoin:round;}
  </style>
 </defs>
 <g id="figure_1">
  <g id="patch_1">
   <path d="M 0 1042.896583 
L 735.323437 1042.896583 
L 735.323437 0 
L 0 0 
z
" style="fill:#ffffff;"/>
  </g>
  <g id="axes_1">
   <g id="patch_2">
    <path d="M 58.523438 300.926216 
L 362.887074 300.926216 
L 362.887074 7.420333 
L 58.523438 7.420333 
z
" style="fill:#ffffff;"/>
   </g>
   <g id="matplotlib.axis_1">
    <g id="xtick_1">
     <g id="line2d_1">
      <defs>
       <path d="M 0 0 
L 0 3.5 
" id="mc0b26b8ee2" style="stroke:#000000;stroke-width:0.8;"/>
      </defs>
      <g>
       <use style="stroke:#000000;stroke-width:0.8;" x="72.358148" xlink:href="#mc0b26b8ee2" y="300.926216"/>
      </g>
     </g>
     <g id="text_1">
      <!-- −40 -->
      <defs>
       <path d="M 10.59375 35.5 
L 73.1875 35.5 
L 73.1875 27.203125 
L 10.59375 27.203125 
z
" id="DejaVuSans-8722"/>
       <path d="M 37.796875 64.3125 
L 12.890625 25.390625 
L 37.796875 25.390625 
z
M 35.203125 72.90625 
L 47.609375 72.90625 
L 47.609375 25.390625 
L 58.015625 25.390625 
L 58.015625 17.1875 
L 47.609375 17.1875 
L 47.609375 0 
L 37.796875 0 
L 37.796875 17.1875 
L 4.890625 17.1875 
L 4.890625 26.703125 
z
" id="DejaVuSans-52"/>
       <path d="M 31.78125 66.40625 
Q 24.171875 66.40625 20.328125 58.90625 
Q 16.5 51.421875 16.5 36.375 
Q 16.5 21.390625 20.328125 13.890625 
Q 24.171875 6.390625 31.78125 6.390625 
Q 39.453125 6.390625 43.28125 13.890625 
Q 47.125 21.390625 47.125 36.375 
Q 47.125 51.421875 43.28125 58.90625 
Q 39.453125 66.40625 31.78125 66.40625 
z
M 31.78125 74.21875 
Q 44.046875 74.21875 50.515625 64.515625 
Q 56.984375 54.828125 56.984375 36.375 
Q 56.984375 17.96875 50.515625 8.265625 
Q 44.046875 -1.421875 31.78125 -1.421875 
Q 19.53125 -1.421875 13.0625 8.265625 
Q 6.59375 17.96875 6.59375 36.375 
Q 6.59375 54.828125 13.0625 64.515625 
Q 19.53125 74.21875 31.78125 74.21875 
z
" id="DejaVuSans-48"/>
      </defs>
      <g transform="translate(61.805804 315.524653)scale(0.1 -0.1)">
       <use xlink:href="#DejaVuSans-8722"/>
       <use x="83.789062" xlink:href="#DejaVuSans-52"/>
       <use x="147.412109" xlink:href="#DejaVuSans-48"/>
      </g>
     </g>
    </g>
    <g id="xtick_2">
     <g id="line2d_2">
      <g>
       <use style="stroke:#000000;stroke-width:0.8;" x="106.944925" xlink:href="#mc0b26b8ee2" y="300.926216"/>
      </g>
     </g>
     <g id="text_2">
      <!-- −30 -->
      <defs>
       <path d="M 40.578125 39.3125 
Q 47.65625 37.796875 51.625 33 
Q 55.609375 28.21875 55.609375 21.1875 
Q 55.609375 10.40625 48.1875 4.484375 
Q 40.765625 -1.421875 27.09375 -1.421875 
Q 22.515625 -1.421875 17.65625 -0.515625 
Q 12.796875 0.390625 7.625 2.203125 
L 7.625 11.71875 
Q 11.71875 9.328125 16.59375 8.109375 
Q 21.484375 6.890625 26.8125 6.890625 
Q 36.078125 6.890625 40.9375 10.546875 
Q 45.796875 14.203125 45.796875 21.1875 
Q 45.796875 27.640625 41.28125 31.265625 
Q 36.765625 34.90625 28.71875 34.90625 
L 20.21875 34.90625 
L 20.21875 43.015625 
L 29.109375 43.015625 
Q 36.375 43.015625 40.234375 45.921875 
Q 44.09375 48.828125 44.09375 54.296875 
Q 44.09375 59.90625 40.109375 62.90625 
Q 36.140625 65.921875 28.71875 65.921875 
Q 24.65625 65.921875 20.015625 65.03125 
Q 15.375 64.15625 9.8125 62.3125 
L 9.8125 71.09375 
Q 15.4375 72.65625 20.34375 73.4375 
Q 25.25 74.21875 29.59375 74.21875 
Q 40.828125 74.21875 47.359375 69.109375 
Q 53.90625 64.015625 53.90625 55.328125 
Q 53.90625 49.265625 50.4375 45.09375 
Q 46.96875 40.921875 40.578125 39.3125 
z
" id="DejaVuSans-51"/>
      </defs>
      <g transform="translate(96.392581 315.524653)scale(0.1 -0.1)">
       <use xlink:href="#DejaVuSans-8722"/>
       <use x="83.789062" xlink:href="#DejaVuSans-51"/>
       <use x="147.412109" xlink:href="#DejaVuSans-48"/>
      </g>
     </g>
    </g>
    <g id="xtick_3">
     <g id="line2d_3">
      <g>
       <use style="stroke:#000000;stroke-width:0.8;" x="141.531702" xlink:href="#mc0b26b8ee2" y="300.926216"/>
      </g>
     </g>
     <g id="text_3">
      <!-- −20 -->
      <defs>
       <path d="M 19.1875 8.296875 
L 53.609375 8.296875 
L 53.609375 0 
L 7.328125 0 
L 7.328125 8.296875 
Q 12.9375 14.109375 22.625 23.890625 
Q 32.328125 33.6875 34.8125 36.53125 
Q 39.546875 41.84375 41.421875 45.53125 
Q 43.3125 49.21875 43.3125 52.78125 
Q 43.3125 58.59375 39.234375 62.25 
Q 35.15625 65.921875 28.609375 65.921875 
Q 23.96875 65.921875 18.8125 64.3125 
Q 13.671875 62.703125 7.8125 59.421875 
L 7.8125 69.390625 
Q 13.765625 71.78125 18.9375 73 
Q 24.125 74.21875 28.421875 74.21875 
Q 39.75 74.21875 46.484375 68.546875 
Q 53.21875 62.890625 53.21875 53.421875 
Q 53.21875 48.921875 51.53125 44.890625 
Q 49.859375 40.875 45.40625 35.40625 
Q 44.1875 33.984375 37.640625 27.21875 
Q 31.109375 20.453125 19.1875 8.296875 
z
" id="DejaVuSans-50"/>
      </defs>
      <g transform="translate(130.979358 315.524653)scale(0.1 -0.1)">
       <use xlink:href="#DejaVuSans-8722"/>
       <use x="83.789062" xlink:href="#DejaVuSans-50"/>
       <use x="147.412109" xlink:href="#DejaVuSans-48"/>
      </g>
     </g>
    </g>
    <g id="xtick_4">
     <g id="line2d_4">
      <g>
       <use style="stroke:#000000;stroke-width:0.8;" x="176.118479" xlink:href="#mc0b26b8ee2" y="300.926216"/>
      </g>
     </g>
     <g id="text_4">
      <!-- −10 -->
      <defs>
       <path d="M 12.40625 8.296875 
L 28.515625 8.296875 
L 28.515625 63.921875 
L 10.984375 60.40625 
L 10.984375 69.390625 
L 28.421875 72.90625 
L 38.28125 72.90625 
L 38.28125 8.296875 
L 54.390625 8.296875 
L 54.390625 0 
L 12.40625 0 
z
" id="DejaVuSans-49"/>
      </defs>
      <g transform="translate(165.566135 315.524653)scale(0.1 -0.1)">
       <use xlink:href="#DejaVuSans-8722"/>
       <use x="83.789062" xlink:href="#DejaVuSans-49"/>
       <use x="147.412109" xlink:href="#DejaVuSans-48"/>
      </g>
     </g>
    </g>
    <g id="xtick_5">
     <g id="line2d_5">
      <g>
       <use style="stroke:#000000;stroke-width:0.8;" x="210.705256" xlink:href="#mc0b26b8ee2" y="300.926216"/>
      </g>
     </g>
     <g id="text_5">
      <!-- 0 -->
      <g transform="translate(207.524006 315.524653)scale(0.1 -0.1)">
       <use xlink:href="#DejaVuSans-48"/>
      </g>
     </g>
    </g>
    <g id="xtick_6">
     <g id="line2d_6">
      <g>
       <use style="stroke:#000000;stroke-width:0.8;" x="245.292033" xlink:href="#mc0b26b8ee2" y="300.926216"/>
      </g>
     </g>
     <g id="text_6">
      <!-- 10 -->
      <g transform="translate(238.929533 315.524653)scale(0.1 -0.1)">
       <use xlink:href="#DejaVuSans-49"/>
       <use x="63.623047" xlink:href="#DejaVuSans-48"/>
      </g>
     </g>
    </g>
    <g id="xtick_7">
     <g id="line2d_7">
      <g>
       <use style="stroke:#000000;stroke-width:0.8;" x="279.878809" xlink:href="#mc0b26b8ee2" y="300.926216"/>
      </g>
     </g>
     <g id="text_7">
      <!-- 20 -->
      <g transform="translate(273.516309 315.524653)scale(0.1 -0.1)">
       <use xlink:href="#DejaVuSans-50"/>
       <use x="63.623047" xlink:href="#DejaVuSans-48"/>
      </g>
     </g>
    </g>
    <g id="xtick_8">
     <g id="line2d_8">
      <g>
       <use style="stroke:#000000;stroke-width:0.8;" x="314.465586" xlink:href="#mc0b26b8ee2" y="300.926216"/>
      </g>
     </g>
     <g id="text_8">
      <!-- 30 -->
      <g transform="translate(308.103086 315.524653)scale(0.1 -0.1)">
       <use xlink:href="#DejaVuSans-51"/>
       <use x="63.623047" xlink:href="#DejaVuSans-48"/>
      </g>
     </g>
    </g>
    <g id="xtick_9">
     <g id="line2d_9">
      <g>
       <use style="stroke:#000000;stroke-width:0.8;" x="349.052363" xlink:href="#mc0b26b8ee2" y="300.926216"/>
      </g>
     </g>
     <g id="text_9">
      <!-- 40 -->
      <g transform="translate(342.689863 315.524653)scale(0.1 -0.1)">
       <use xlink:href="#DejaVuSans-52"/>
       <use x="63.623047" xlink:href="#DejaVuSans-48"/>
      </g>
     </g>
    </g>
    <g id="text_10">
     <!-- $\Delta_b$ -->
     <defs>
      <path d="M 34.1875 63.1875 
L 14.15625 8.203125 
L 54.25 8.203125 
z
M 0.78125 0 
L 28.609375 72.90625 
L 39.796875 72.90625 
L 67.578125 0 
z
" id="DejaVuSans-916"/>
      <path d="M 49.515625 33.40625 
Q 49.515625 40.484375 46.265625 44.484375 
Q 43.015625 48.484375 37.3125 48.484375 
Q 33.15625 48.484375 29.515625 46.453125 
Q 25.875 44.4375 23.1875 40.578125 
Q 20.359375 36.53125 18.71875 31.171875 
Q 17.09375 25.828125 17.09375 20.515625 
Q 17.09375 13.765625 20.28125 9.9375 
Q 23.484375 6.109375 29.109375 6.109375 
Q 33.34375 6.109375 36.953125 8.078125 
Q 40.578125 10.0625 43.3125 13.921875 
Q 46.09375 17.921875 47.796875 23.234375 
Q 49.515625 28.5625 49.515625 33.40625 
z
M 21.578125 46.390625 
Q 24.90625 50.875 29.90625 53.4375 
Q 34.90625 56 40.375 56 
Q 48.78125 56 53.734375 50.328125 
Q 58.6875 44.671875 58.6875 35.015625 
Q 58.6875 27.09375 55.78125 19.671875 
Q 52.875 12.25 47.515625 6.5 
Q 44 2.6875 39.40625 0.625 
Q 34.8125 -1.421875 29.78125 -1.421875 
Q 24.46875 -1.421875 20.5625 1.015625 
Q 16.65625 3.46875 14.203125 8.296875 
L 12.59375 0 
L 3.609375 0 
L 18.40625 75.984375 
L 27.390625 75.984375 
z
" id="DejaVuSans-Oblique-98"/>
     </defs>
     <g transform="translate(204.855256 329.202778)scale(0.1 -0.1)">
      <use transform="translate(0 0.09375)" xlink:href="#DejaVuSans-916"/>
      <use transform="translate(69.365234 -16.3125)scale(0.7)" xlink:href="#DejaVuSans-Oblique-98"/>
     </g>
    </g>
   </g>
   <g id="matplotlib.axis_2">
    <g id="ytick_1">
     <g id="line2d_10">
      <defs>
       <path d="M 0 0 
L -3.5 0 
" id="m4d1cb32587" style="stroke:#000000;stroke-width:0.8;"/>
      </defs>
      <g>
       <use style="stroke:#000000;stroke-width:0.8;" x="58.523438" xlink:href="#m4d1cb32587" y="280.852366"/>
      </g>
     </g>
     <g id="text_11">
      <!-- 0.550 -->
      <defs>
       <path d="M 10.6875 12.40625 
L 21 12.40625 
L 21 0 
L 10.6875 0 
z
" id="DejaVuSans-46"/>
       <path d="M 10.796875 72.90625 
L 49.515625 72.90625 
L 49.515625 64.59375 
L 19.828125 64.59375 
L 19.828125 46.734375 
Q 21.96875 47.46875 24.109375 47.828125 
Q 26.265625 48.1875 28.421875 48.1875 
Q 40.625 48.1875 47.75 41.5 
Q 54.890625 34.8125 54.890625 23.390625 
Q 54.890625 11.625 47.5625 5.09375 
Q 40.234375 -1.421875 26.90625 -1.421875 
Q 22.3125 -1.421875 17.546875 -0.640625 
Q 12.796875 0.140625 7.71875 1.703125 
L 7.71875 11.625 
Q 12.109375 9.234375 16.796875 8.0625 
Q 21.484375 6.890625 26.703125 6.890625 
Q 35.15625 6.890625 40.078125 11.328125 
Q 45.015625 15.765625 45.015625 23.390625 
Q 45.015625 31 40.078125 35.4375 
Q 35.15625 39.890625 26.703125 39.890625 
Q 22.75 39.890625 18.8125 39.015625 
Q 14.890625 38.140625 10.796875 36.28125 
z
" id="DejaVuSans-53"/>
      </defs>
      <g transform="translate(22.895312 284.651584)scale(0.1 -0.1)">
       <use xlink:href="#DejaVuSans-48"/>
       <use x="63.623047" xlink:href="#DejaVuSans-46"/>
       <use x="95.410156" xlink:href="#DejaVuSans-53"/>
       <use x="159.033203" xlink:href="#DejaVuSans-53"/>
       <use x="222.65625" xlink:href="#DejaVuSans-48"/>
      </g>
     </g>
    </g>
    <g id="ytick_2">
     <g id="line2d_11">
      <g>
       <use style="stroke:#000000;stroke-width:0.8;" x="58.523438" xlink:href="#m4d1cb32587" y="246.673342"/>
      </g>
     </g>
     <g id="text_12">
      <!-- 0.575 -->
      <defs>
       <path d="M 8.203125 72.90625 
L 55.078125 72.90625 
L 55.078125 68.703125 
L 28.609375 0 
L 18.3125 0 
L 43.21875 64.59375 
L 8.203125 64.59375 
z
" id="DejaVuSans-55"/>
      </defs>
      <g transform="translate(22.895312 250.472561)scale(0.1 -0.1)">
       <use xlink:href="#DejaVuSans-48"/>
       <use x="63.623047" xlink:href="#DejaVuSans-46"/>
       <use x="95.410156" xlink:href="#DejaVuSans-53"/>
       <use x="159.033203" xlink:href="#DejaVuSans-55"/>
       <use x="222.65625" xlink:href="#DejaVuSans-53"/>
      </g>
     </g>
    </g>
    <g id="ytick_3">
     <g id="line2d_12">
      <g>
       <use style="stroke:#000000;stroke-width:0.8;" x="58.523438" xlink:href="#m4d1cb32587" y="212.494319"/>
      </g>
     </g>
     <g id="text_13">
      <!-- 0.600 -->
      <defs>
       <path d="M 33.015625 40.375 
Q 26.375 40.375 22.484375 35.828125 
Q 18.609375 31.296875 18.609375 23.390625 
Q 18.609375 15.53125 22.484375 10.953125 
Q 26.375 6.390625 33.015625 6.390625 
Q 39.65625 6.390625 43.53125 10.953125 
Q 47.40625 15.53125 47.40625 23.390625 
Q 47.40625 31.296875 43.53125 35.828125 
Q 39.65625 40.375 33.015625 40.375 
z
M 52.59375 71.296875 
L 52.59375 62.3125 
Q 48.875 64.0625 45.09375 64.984375 
Q 41.3125 65.921875 37.59375 65.921875 
Q 27.828125 65.921875 22.671875 59.328125 
Q 17.53125 52.734375 16.796875 39.40625 
Q 19.671875 43.65625 24.015625 45.921875 
Q 28.375 48.1875 33.59375 48.1875 
Q 44.578125 48.1875 50.953125 41.515625 
Q 57.328125 34.859375 57.328125 23.390625 
Q 57.328125 12.15625 50.6875 5.359375 
Q 44.046875 -1.421875 33.015625 -1.421875 
Q 20.359375 -1.421875 13.671875 8.265625 
Q 6.984375 17.96875 6.984375 36.375 
Q 6.984375 53.65625 15.1875 63.9375 
Q 23.390625 74.21875 37.203125 74.21875 
Q 40.921875 74.21875 44.703125 73.484375 
Q 48.484375 72.75 52.59375 71.296875 
z
" id="DejaVuSans-54"/>
      </defs>
      <g transform="translate(22.895312 216.293538)scale(0.1 -0.1)">
       <use xlink:href="#DejaVuSans-48"/>
       <use x="63.623047" xlink:href="#DejaVuSans-46"/>
       <use x="95.410156" xlink:href="#DejaVuSans-54"/>
       <use x="159.033203" xlink:href="#DejaVuSans-48"/>
       <use x="222.65625" xlink:href="#DejaVuSans-48"/>
      </g>
     </g>
    </g>
    <g id="ytick_4">
     <g id="line2d_13">
      <g>
       <use style="stroke:#000000;stroke-width:0.8;" x="58.523438" xlink:href="#m4d1cb32587" y="178.315296"/>
      </g>
     </g>
     <g id="text_14">
      <!-- 0.625 -->
      <g transform="translate(22.895312 182.114514)scale(0.1 -0.1)">
       <use xlink:href="#DejaVuSans-48"/>
       <use x="63.623047" xlink:href="#DejaVuSans-46"/>
       <use x="95.410156" xlink:href="#DejaVuSans-54"/>
       <use x="159.033203" xlink:href="#DejaVuSans-50"/>
       <use x="222.65625" xlink:href="#DejaVuSans-53"/>
      </g>
     </g>
    </g>
    <g id="ytick_5">
     <g id="line2d_14">
      <g>
       <use style="stroke:#000000;stroke-width:0.8;" x="58.523438" xlink:href="#m4d1cb32587" y="144.136272"/>
      </g>
     </g>
     <g id="text_15">
      <!-- 0.650 -->
      <g transform="translate(22.895312 147.935491)scale(0.1 -0.1)">
       <use xlink:href="#DejaVuSans-48"/>
       <use x="63.623047" xlink:href="#DejaVuSans-46"/>
       <use x="95.410156" xlink:href="#DejaVuSans-54"/>
       <use x="159.033203" xlink:href="#DejaVuSans-53"/>
       <use x="222.65625" xlink:href="#DejaVuSans-48"/>
      </g>
     </g>
    </g>
    <g id="ytick_6">
     <g id="line2d_15">
      <g>
       <use style="stroke:#000000;stroke-width:0.8;" x="58.523438" xlink:href="#m4d1cb32587" y="109.957249"/>
      </g>
     </g>
     <g id="text_16">
      <!-- 0.675 -->
      <g transform="translate(22.895312 113.756468)scale(0.1 -0.1)">
       <use xlink:href="#DejaVuSans-48"/>
       <use x="63.623047" xlink:href="#DejaVuSans-46"/>
       <use x="95.410156" xlink:href="#DejaVuSans-54"/>
       <use x="159.033203" xlink:href="#DejaVuSans-55"/>
       <use x="222.65625" xlink:href="#DejaVuSans-53"/>
      </g>
     </g>
    </g>
    <g id="ytick_7">
     <g id="line2d_16">
      <g>
       <use style="stroke:#000000;stroke-width:0.8;" x="58.523438" xlink:href="#m4d1cb32587" y="75.778226"/>
      </g>
     </g>
     <g id="text_17">
      <!-- 0.700 -->
      <g transform="translate(22.895312 79.577444)scale(0.1 -0.1)">
       <use xlink:href="#DejaVuSans-48"/>
       <use x="63.623047" xlink:href="#DejaVuSans-46"/>
       <use x="95.410156" xlink:href="#DejaVuSans-55"/>
       <use x="159.033203" xlink:href="#DejaVuSans-48"/>
       <use x="222.65625" xlink:href="#DejaVuSans-48"/>
      </g>
     </g>
    </g>
    <g id="ytick_8">
     <g id="line2d_17">
      <g>
       <use style="stroke:#000000;stroke-width:0.8;" x="58.523438" xlink:href="#m4d1cb32587" y="41.599202"/>
      </g>
     </g>
     <g id="text_18">
      <!-- 0.725 -->
      <g transform="translate(22.895312 45.398421)scale(0.1 -0.1)">
       <use xlink:href="#DejaVuSans-48"/>
       <use x="63.623047" xlink:href="#DejaVuSans-46"/>
       <use x="95.410156" xlink:href="#DejaVuSans-55"/>
       <use x="159.033203" xlink:href="#DejaVuSans-50"/>
       <use x="222.65625" xlink:href="#DejaVuSans-53"/>
      </g>
     </g>
    </g>
    <g id="text_19">
     <!-- $g_2ab$ -->
     <defs>
      <path d="M 59.625 54.6875 
L 50.296875 6.78125 
Q 47.609375 -7.125 40.015625 -13.953125 
Q 32.421875 -20.796875 19.578125 -20.796875 
Q 14.84375 -20.796875 10.78125 -20.09375 
Q 6.734375 -19.390625 3.21875 -17.921875 
L 4.890625 -9.1875 
Q 8.203125 -11.328125 11.90625 -12.34375 
Q 15.625 -13.375 19.828125 -13.375 
Q 28.375 -13.375 33.859375 -8.703125 
Q 39.359375 -4.046875 41.109375 4.6875 
L 41.890625 8.796875 
Q 38.140625 4.5 33.15625 2.25 
Q 28.171875 0 22.40625 0 
Q 14.109375 0 9.34375 5.484375 
Q 4.59375 10.984375 4.59375 20.609375 
Q 4.59375 28.171875 7.46875 35.421875 
Q 10.359375 42.671875 15.578125 48.296875 
Q 19.046875 52 23.65625 54 
Q 28.265625 56 33.296875 56 
Q 38.8125 56 42.90625 53.4375 
Q 47.015625 50.875 49.03125 46.1875 
L 50.59375 54.6875 
z
M 46.09375 34.625 
Q 46.09375 41.265625 42.96875 44.875 
Q 39.84375 48.484375 34.078125 48.484375 
Q 30.515625 48.484375 27.296875 47.0625 
Q 24.078125 45.65625 21.78125 43.109375 
Q 18.0625 38.921875 15.984375 33.234375 
Q 13.921875 27.546875 13.921875 21.484375 
Q 13.921875 14.75 17.0625 11.125 
Q 20.21875 7.515625 26.125 7.515625 
Q 34.671875 7.515625 40.375 15.25 
Q 46.09375 23 46.09375 34.625 
z
" id="DejaVuSans-Oblique-103"/>
      <path d="M 53.71875 31.203125 
L 47.609375 0 
L 38.625 0 
L 40.28125 8.296875 
Q 36.328125 3.421875 31.265625 1 
Q 26.21875 -1.421875 20.015625 -1.421875 
Q 13.03125 -1.421875 8.5625 2.84375 
Q 4.109375 7.125 4.109375 13.8125 
Q 4.109375 23.390625 11.75 28.953125 
Q 19.390625 34.515625 32.8125 34.515625 
L 45.3125 34.515625 
L 45.796875 36.921875 
Q 45.90625 37.3125 45.953125 37.765625 
Q 46 38.234375 46 39.203125 
Q 46 43.5625 42.453125 45.96875 
Q 38.921875 48.390625 32.515625 48.390625 
Q 28.125 48.390625 23.5 47.265625 
Q 18.890625 46.140625 14.015625 43.890625 
L 15.578125 52.203125 
Q 20.65625 54.109375 25.515625 55.046875 
Q 30.375 56 34.90625 56 
Q 44.578125 56 49.625 51.796875 
Q 54.6875 47.609375 54.6875 39.59375 
Q 54.6875 37.984375 54.4375 35.8125 
Q 54.203125 33.640625 53.71875 31.203125 
z
M 44 27.484375 
L 35.015625 27.484375 
Q 23.96875 27.484375 18.671875 24.53125 
Q 13.375 21.578125 13.375 15.375 
Q 13.375 11.078125 16.078125 8.640625 
Q 18.796875 6.203125 23.578125 6.203125 
Q 30.90625 6.203125 36.375 11.453125 
Q 41.84375 16.703125 43.609375 25.484375 
z
" id="DejaVuSans-Oblique-97"/>
     </defs>
     <g transform="translate(16.795313 165.973274)rotate(-90)scale(0.1 -0.1)">
      <use transform="translate(0 0.015625)" xlink:href="#DejaVuSans-Oblique-103"/>
      <use transform="translate(63.476562 -16.390625)scale(0.7)" xlink:href="#DejaVuSans-50"/>
      <use transform="translate(110.74707 0.015625)" xlink:href="#DejaVuSans-Oblique-97"/>
      <use transform="translate(172.026367 0.015625)" xlink:href="#DejaVuSans-Oblique-98"/>
     </g>
    </g>
   </g>
   <g id="line2d_18">
    <path clip-path="url(#pb4f17784df)" d="M 72.358148 28.998443 
L 75.860607 42.542773 
L 79.363065 55.895081 
L 82.865523 69.032115 
L 86.367982 20.76151 
L 89.87044 35.945185 
L 93.372899 50.902108 
L 96.875357 65.598645 
L 100.377816 26.10526 
L 103.880274 42.706708 
L 107.382732 59.010624 
L 110.885191 26.365513 
L 114.387649 44.423743 
L 117.890108 62.11808 
L 121.392566 36.419829 
L 124.895024 55.695766 
L 128.397483 34.984271 
L 131.899941 55.675851 
L 135.4024 39.949308 
L 138.904858 27.447383 
L 142.407317 51.035016 
L 145.909775 43.381565 
L 149.412233 38.909582 
L 152.914692 37.584907 
L 156.41715 39.340232 
L 159.919609 44.081485 
L 163.422067 29.674038 
L 166.924525 41.868034 
L 170.426984 38.145723 
L 173.929442 40.352704 
L 177.431901 48.229207 
L 180.934359 48.198246 
L 184.436818 45.004903 
L 187.939276 53.180005 
L 191.441734 63.960806 
L 194.944193 81.898781 
L 198.446651 116.429572 
L 201.94911 161.928078 
L 205.451568 229.123437 
L 208.954026 287.585039 
L 212.456485 287.585039 
L 215.958943 229.123437 
L 219.461402 161.928078 
L 222.96386 116.429572 
L 226.466319 81.898781 
L 229.968777 63.960806 
L 233.471235 53.180005 
L 236.973694 45.004903 
L 240.476152 48.198246 
L 243.978611 48.229207 
L 247.481069 40.352704 
L 250.983527 38.145723 
L 254.485986 41.868034 
L 257.988444 29.674038 
L 261.490903 44.081485 
L 264.993361 39.340232 
L 268.49582 37.584907 
L 271.998278 38.909582 
L 275.500736 43.381565 
L 279.003195 51.035016 
L 282.505653 27.447383 
L 286.008112 39.949308 
L 289.51057 55.675851 
L 293.013028 34.984271 
L 296.515487 55.695766 
L 300.017945 36.419829 
L 303.520404 62.11808 
L 307.022862 44.423743 
L 310.525321 26.365513 
L 314.027779 59.010624 
L 317.530237 42.706708 
L 321.032696 26.10526 
L 324.535154 65.598645 
L 328.037613 50.902108 
L 331.540071 35.945185 
L 335.042529 20.76151 
L 338.544988 69.032115 
L 342.047446 55.895081 
L 345.549905 42.542773 
L 349.052363 28.998443 
" style="fill:none;stroke:#1f77b4;stroke-dasharray:9.6,2.4,1.5,2.4;stroke-dashoffset:0;stroke-width:1.5;"/>
   </g>
   <g id="patch_3">
    <path d="M 58.523438 300.926216 
L 58.523438 7.420333 
" style="fill:none;stroke:#000000;stroke-linecap:square;stroke-linejoin:miter;stroke-width:0.8;"/>
   </g>
   <g id="patch_4">
    <path d="M 362.887074 300.926216 
L 362.887074 7.420333 
" style="fill:none;stroke:#000000;stroke-linecap:square;stroke-linejoin:miter;stroke-width:0.8;"/>
   </g>
   <g id="patch_5">
    <path d="M 58.523438 300.926216 
L 362.887074 300.926216 
" style="fill:none;stroke:#000000;stroke-linecap:square;stroke-linejoin:miter;stroke-width:0.8;"/>
   </g>
   <g id="patch_6">
    <path d="M 58.523438 7.420333 
L 362.887074 7.420333 
" style="fill:none;stroke:#000000;stroke-linecap:square;stroke-linejoin:miter;stroke-width:0.8;"/>
   </g>
  </g>
  <g id="axes_2">
   <g id="patch_7">
    <path d="M 423.759801 300.926216 
L 728.123437 300.926216 
L 728.123437 7.420333 
L 423.759801 7.420333 
z
" style="fill:#ffffff;"/>
   </g>
   <g id="matplotlib.axis_3">
    <g id="xtick_10">
     <g id="line2d_19">
      <g>
       <use style="stroke:#000000;stroke-width:0.8;" x="437.594512" xlink:href="#mc0b26b8ee2" y="300.926216"/>
      </g>
     </g>
     <g id="text_20">
      <!-- −40 -->
      <g transform="translate(427.042168 315.524653)scale(0.1 -0.1)">
       <use xlink:href="#DejaVuSans-8722"/>
       <use x="83.789062" xlink:href="#DejaVuSans-52"/>
       <use x="147.412109" xlink:href="#DejaVuSans-48"/>
      </g>
     </g>
    </g>
    <g id="xtick_11">
     <g id="line2d_20">
      <g>
       <use style="stroke:#000000;stroke-width:0.8;" x="472.181289" xlink:href="#mc0b26b8ee2" y="300.926216"/>
      </g>
     </g>
     <g id="text_21">
      <!-- −30 -->
      <g transform="translate(461.628945 315.524653)scale(0.1 -0.1)">
       <use xlink:href="#DejaVuSans-8722"/>
       <use x="83.789062" xlink:href="#DejaVuSans-51"/>
       <use x="147.412109" xlink:href="#DejaVuSans-48"/>
      </g>
     </g>
    </g>
    <g id="xtick_12">
     <g id="line2d_21">
      <g>
       <use style="stroke:#000000;stroke-width:0.8;" x="506.768066" xlink:href="#mc0b26b8ee2" y="300.926216"/>
      </g>
     </g>
     <g id="text_22">
      <!-- −20 -->
      <g transform="translate(496.215722 315.524653)scale(0.1 -0.1)">
       <use xlink:href="#DejaVuSans-8722"/>
       <use x="83.789062" xlink:href="#DejaVuSans-50"/>
       <use x="147.412109" xlink:href="#DejaVuSans-48"/>
      </g>
     </g>
    </g>
    <g id="xtick_13">
     <g id="line2d_22">
      <g>
       <use style="stroke:#000000;stroke-width:0.8;" x="541.354842" xlink:href="#mc0b26b8ee2" y="300.926216"/>
      </g>
     </g>
     <g id="text_23">
      <!-- −10 -->
      <g transform="translate(530.802499 315.524653)scale(0.1 -0.1)">
       <use xlink:href="#DejaVuSans-8722"/>
       <use x="83.789062" xlink:href="#DejaVuSans-49"/>
       <use x="147.412109" xlink:href="#DejaVuSans-48"/>
      </g>
     </g>
    </g>
    <g id="xtick_14">
     <g id="line2d_23">
      <g>
       <use style="stroke:#000000;stroke-width:0.8;" x="575.941619" xlink:href="#mc0b26b8ee2" y="300.926216"/>
      </g>
     </g>
     <g id="text_24">
      <!-- 0 -->
      <g transform="translate(572.760369 315.524653)scale(0.1 -0.1)">
       <use xlink:href="#DejaVuSans-48"/>
      </g>
     </g>
    </g>
    <g id="xtick_15">
     <g id="line2d_24">
      <g>
       <use style="stroke:#000000;stroke-width:0.8;" x="610.528396" xlink:href="#mc0b26b8ee2" y="300.926216"/>
      </g>
     </g>
     <g id="text_25">
      <!-- 10 -->
      <g transform="translate(604.165896 315.524653)scale(0.1 -0.1)">
       <use xlink:href="#DejaVuSans-49"/>
       <use x="63.623047" xlink:href="#DejaVuSans-48"/>
      </g>
     </g>
    </g>
    <g id="xtick_16">
     <g id="line2d_25">
      <g>
       <use style="stroke:#000000;stroke-width:0.8;" x="645.115173" xlink:href="#mc0b26b8ee2" y="300.926216"/>
      </g>
     </g>
     <g id="text_26">
      <!-- 20 -->
      <g transform="translate(638.752673 315.524653)scale(0.1 -0.1)">
       <use xlink:href="#DejaVuSans-50"/>
       <use x="63.623047" xlink:href="#DejaVuSans-48"/>
      </g>
     </g>
    </g>
    <g id="xtick_17">
     <g id="line2d_26">
      <g>
       <use style="stroke:#000000;stroke-width:0.8;" x="679.70195" xlink:href="#mc0b26b8ee2" y="300.926216"/>
      </g>
     </g>
     <g id="text_27">
      <!-- 30 -->
      <g transform="translate(673.33945 315.524653)scale(0.1 -0.1)">
       <use xlink:href="#DejaVuSans-51"/>
       <use x="63.623047" xlink:href="#DejaVuSans-48"/>
      </g>
     </g>
    </g>
    <g id="xtick_18">
     <g id="line2d_27">
      <g>
       <use style="stroke:#000000;stroke-width:0.8;" x="714.288727" xlink:href="#mc0b26b8ee2" y="300.926216"/>
      </g>
     </g>
     <g id="text_28">
      <!-- 40 -->
      <g transform="translate(707.926227 315.524653)scale(0.1 -0.1)">
       <use xlink:href="#DejaVuSans-52"/>
       <use x="63.623047" xlink:href="#DejaVuSans-48"/>
      </g>
     </g>
    </g>
    <g id="text_29">
     <!-- $\Delta_b$ -->
     <g transform="translate(570.091619 329.202778)scale(0.1 -0.1)">
      <use transform="translate(0 0.09375)" xlink:href="#DejaVuSans-916"/>
      <use transform="translate(69.365234 -16.3125)scale(0.7)" xlink:href="#DejaVuSans-Oblique-98"/>
     </g>
    </g>
   </g>
   <g id="matplotlib.axis_4">
    <g id="ytick_9">
     <g id="line2d_28">
      <g>
       <use style="stroke:#000000;stroke-width:0.8;" x="423.759801" xlink:href="#m4d1cb32587" y="294.086952"/>
      </g>
     </g>
     <g id="text_30">
      <!-- 0 -->
      <g transform="translate(410.397301 297.886171)scale(0.1 -0.1)">
       <use xlink:href="#DejaVuSans-48"/>
      </g>
     </g>
    </g>
    <g id="ytick_10">
     <g id="line2d_29">
      <g>
       <use style="stroke:#000000;stroke-width:0.8;" x="423.759801" xlink:href="#m4d1cb32587" y="246.905663"/>
      </g>
     </g>
     <g id="text_31">
      <!-- 20 -->
      <g transform="translate(404.034801 250.704882)scale(0.1 -0.1)">
       <use xlink:href="#DejaVuSans-50"/>
       <use x="63.623047" xlink:href="#DejaVuSans-48"/>
      </g>
     </g>
    </g>
    <g id="ytick_11">
     <g id="line2d_30">
      <g>
       <use style="stroke:#000000;stroke-width:0.8;" x="423.759801" xlink:href="#m4d1cb32587" y="199.724374"/>
      </g>
     </g>
     <g id="text_32">
      <!-- 40 -->
      <g transform="translate(404.034801 203.523593)scale(0.1 -0.1)">
       <use xlink:href="#DejaVuSans-52"/>
       <use x="63.623047" xlink:href="#DejaVuSans-48"/>
      </g>
     </g>
    </g>
    <g id="ytick_12">
     <g id="line2d_31">
      <g>
       <use style="stroke:#000000;stroke-width:0.8;" x="423.759801" xlink:href="#m4d1cb32587" y="152.543086"/>
      </g>
     </g>
     <g id="text_33">
      <!-- 60 -->
      <g transform="translate(404.034801 156.342304)scale(0.1 -0.1)">
       <use xlink:href="#DejaVuSans-54"/>
       <use x="63.623047" xlink:href="#DejaVuSans-48"/>
      </g>
     </g>
    </g>
    <g id="ytick_13">
     <g id="line2d_32">
      <g>
       <use style="stroke:#000000;stroke-width:0.8;" x="423.759801" xlink:href="#m4d1cb32587" y="105.361797"/>
      </g>
     </g>
     <g id="text_34">
      <!-- 80 -->
      <defs>
       <path d="M 31.78125 34.625 
Q 24.75 34.625 20.71875 30.859375 
Q 16.703125 27.09375 16.703125 20.515625 
Q 16.703125 13.921875 20.71875 10.15625 
Q 24.75 6.390625 31.78125 6.390625 
Q 38.8125 6.390625 42.859375 10.171875 
Q 46.921875 13.96875 46.921875 20.515625 
Q 46.921875 27.09375 42.890625 30.859375 
Q 38.875 34.625 31.78125 34.625 
z
M 21.921875 38.8125 
Q 15.578125 40.375 12.03125 44.71875 
Q 8.5 49.078125 8.5 55.328125 
Q 8.5 64.0625 14.71875 69.140625 
Q 20.953125 74.21875 31.78125 74.21875 
Q 42.671875 74.21875 48.875 69.140625 
Q 55.078125 64.0625 55.078125 55.328125 
Q 55.078125 49.078125 51.53125 44.71875 
Q 48 40.375 41.703125 38.8125 
Q 48.828125 37.15625 52.796875 32.3125 
Q 56.78125 27.484375 56.78125 20.515625 
Q 56.78125 9.90625 50.3125 4.234375 
Q 43.84375 -1.421875 31.78125 -1.421875 
Q 19.734375 -1.421875 13.25 4.234375 
Q 6.78125 9.90625 6.78125 20.515625 
Q 6.78125 27.484375 10.78125 32.3125 
Q 14.796875 37.15625 21.921875 38.8125 
z
M 18.3125 54.390625 
Q 18.3125 48.734375 21.84375 45.5625 
Q 25.390625 42.390625 31.78125 42.390625 
Q 38.140625 42.390625 41.71875 45.5625 
Q 45.3125 48.734375 45.3125 54.390625 
Q 45.3125 60.0625 41.71875 63.234375 
Q 38.140625 66.40625 31.78125 66.40625 
Q 25.390625 66.40625 21.84375 63.234375 
Q 18.3125 60.0625 18.3125 54.390625 
z
" id="DejaVuSans-56"/>
      </defs>
      <g transform="translate(404.034801 109.161015)scale(0.1 -0.1)">
       <use xlink:href="#DejaVuSans-56"/>
       <use x="63.623047" xlink:href="#DejaVuSans-48"/>
      </g>
     </g>
    </g>
    <g id="ytick_14">
     <g id="line2d_33">
      <g>
       <use style="stroke:#000000;stroke-width:0.8;" x="423.759801" xlink:href="#m4d1cb32587" y="58.180508"/>
      </g>
     </g>
     <g id="text_35">
      <!-- 100 -->
      <g transform="translate(397.672301 61.979726)scale(0.1 -0.1)">
       <use xlink:href="#DejaVuSans-49"/>
       <use x="63.623047" xlink:href="#DejaVuSans-48"/>
       <use x="127.246094" xlink:href="#DejaVuSans-48"/>
      </g>
     </g>
    </g>
    <g id="ytick_15">
     <g id="line2d_34">
      <g>
       <use style="stroke:#000000;stroke-width:0.8;" x="423.759801" xlink:href="#m4d1cb32587" y="10.999219"/>
      </g>
     </g>
     <g id="text_36">
      <!-- 120 -->
      <g transform="translate(397.672301 14.798437)scale(0.1 -0.1)">
       <use xlink:href="#DejaVuSans-49"/>
       <use x="63.623047" xlink:href="#DejaVuSans-50"/>
       <use x="127.246094" xlink:href="#DejaVuSans-48"/>
      </g>
     </g>
    </g>
    <g id="text_37">
     <!-- $g_2ac$ -->
     <defs>
      <path d="M 53.609375 52.59375 
L 51.8125 43.703125 
Q 48.578125 46.046875 44.9375 47.21875 
Q 41.3125 48.390625 37.40625 48.390625 
Q 33.109375 48.390625 29.21875 46.875 
Q 25.34375 45.359375 22.703125 42.578125 
Q 18.5 38.328125 16.203125 32.609375 
Q 13.921875 26.90625 13.921875 20.796875 
Q 13.921875 13.421875 17.609375 9.8125 
Q 21.296875 6.203125 28.8125 6.203125 
Q 32.515625 6.203125 36.6875 7.328125 
Q 40.875 8.453125 45.40625 10.6875 
L 43.703125 1.8125 
Q 39.796875 0.203125 35.671875 -0.609375 
Q 31.546875 -1.421875 27.203125 -1.421875 
Q 16.3125 -1.421875 10.453125 4.015625 
Q 4.59375 9.46875 4.59375 19.578125 
Q 4.59375 28.078125 7.640625 35.234375 
Q 10.6875 42.390625 16.703125 48.09375 
Q 20.796875 52 26.3125 54 
Q 31.84375 56 38.375 56 
Q 42.1875 56 45.9375 55.140625 
Q 49.703125 54.296875 53.609375 52.59375 
z
" id="DejaVuSans-Oblique-99"/>
     </defs>
     <g transform="translate(391.572301 165.573274)rotate(-90)scale(0.1 -0.1)">
      <use xlink:href="#DejaVuSans-Oblique-103"/>
      <use transform="translate(63.476562 -16.40625)scale(0.7)" xlink:href="#DejaVuSans-50"/>
      <use transform="translate(110.74707 0)" xlink:href="#DejaVuSans-Oblique-97"/>
      <use transform="translate(172.026367 0)" xlink:href="#DejaVuSans-Oblique-99"/>
     </g>
    </g>
   </g>
   <g id="line2d_35">
    <path clip-path="url(#peea9c56a02)" d="M 437.594512 20.76151 
L 441.09697 23.875562 
L 444.599429 26.989572 
L 448.101887 30.092337 
L 451.604346 75.922744 
L 455.106804 78.601648 
L 458.609262 81.291757 
L 462.111721 83.979584 
L 465.614179 117.445706 
L 469.116638 119.790871 
L 472.619096 122.14589 
L 476.121554 147.496624 
L 479.624013 149.567226 
L 483.126471 151.650654 
L 486.62893 171.263007 
L 490.131388 173.117572 
L 493.633847 188.751716 
L 497.136305 190.416044 
L 500.638763 203.067373 
L 504.141222 213.587637 
L 507.64368 214.944868 
L 511.146139 223.660752 
L 514.648597 231.061732 
L 518.151055 237.400775 
L 521.653514 242.872014 
L 525.155972 247.627533 
L 528.658431 254.679678 
L 532.160889 257.959308 
L 535.663348 262.850219 
L 539.165806 266.789342 
L 542.668264 270.00747 
L 546.170723 273.623936 
L 549.673181 277.099142 
L 553.17564 279.653752 
L 556.678098 281.93953 
L 560.180556 283.858097 
L 563.683015 285.233516 
L 567.185473 286.497121 
L 570.687932 287.203451 
L 574.19039 287.585039 
L 577.692849 287.585039 
L 581.195307 287.203451 
L 584.697765 286.497121 
L 588.200224 285.233516 
L 591.702682 283.858097 
L 595.205141 281.93953 
L 598.707599 279.653752 
L 602.210057 277.099142 
L 605.712516 273.623936 
L 609.214974 270.00747 
L 612.717433 266.789342 
L 616.219891 262.850219 
L 619.72235 257.959308 
L 623.224808 254.679678 
L 626.727266 247.627533 
L 630.229725 242.872014 
L 633.732183 237.400775 
L 637.234642 231.061732 
L 640.7371 223.660752 
L 644.239558 214.944868 
L 647.742017 213.587637 
L 651.244475 203.067373 
L 654.746934 190.416044 
L 658.249392 188.751716 
L 661.751851 173.117572 
L 665.254309 171.263007 
L 668.756767 151.650654 
L 672.259226 149.567226 
L 675.761684 147.496624 
L 679.264143 122.14589 
L 682.766601 119.790871 
L 686.269059 117.445706 
L 689.771518 83.979584 
L 693.273976 81.291757 
L 696.776435 78.601648 
L 700.278893 75.922744 
L 703.781352 30.092337 
L 707.28381 26.989572 
L 710.786268 23.875562 
L 714.288727 20.76151 
" style="fill:none;stroke:#1f77b4;stroke-dasharray:9.6,2.4,1.5,2.4;stroke-dashoffset:0;stroke-width:1.5;"/>
   </g>
   <g id="patch_8">
    <path d="M 423.759801 300.926216 
L 423.759801 7.420333 
" style="fill:none;stroke:#000000;stroke-linecap:square;stroke-linejoin:miter;stroke-width:0.8;"/>
   </g>
   <g id="patch_9">
    <path d="M 728.123437 300.926216 
L 728.123437 7.420333 
" style="fill:none;stroke:#000000;stroke-linecap:square;stroke-linejoin:miter;stroke-width:0.8;"/>
   </g>
   <g id="patch_10">
    <path d="M 423.759801 300.926216 
L 728.123437 300.926216 
" style="fill:none;stroke:#000000;stroke-linecap:square;stroke-linejoin:miter;stroke-width:0.8;"/>
   </g>
   <g id="patch_11">
    <path d="M 423.759801 7.420333 
L 728.123437 7.420333 
" style="fill:none;stroke:#000000;stroke-linecap:square;stroke-linejoin:miter;stroke-width:0.8;"/>
   </g>
  </g>
  <g id="axes_3">
   <g id="patch_12">
    <path d="M 58.523438 653.133274 
L 362.887074 653.133274 
L 362.887074 359.627392 
L 58.523438 359.627392 
z
" style="fill:#ffffff;"/>
   </g>
   <g id="matplotlib.axis_5">
    <g id="xtick_19">
     <g id="line2d_36">
      <g>
       <use style="stroke:#000000;stroke-width:0.8;" x="72.358148" xlink:href="#mc0b26b8ee2" y="653.133274"/>
      </g>
     </g>
     <g id="text_38">
      <!-- −40 -->
      <g transform="translate(61.805804 667.731712)scale(0.1 -0.1)">
       <use xlink:href="#DejaVuSans-8722"/>
       <use x="83.789062" xlink:href="#DejaVuSans-52"/>
       <use x="147.412109" xlink:href="#DejaVuSans-48"/>
      </g>
     </g>
    </g>
    <g id="xtick_20">
     <g id="line2d_37">
      <g>
       <use style="stroke:#000000;stroke-width:0.8;" x="106.944925" xlink:href="#mc0b26b8ee2" y="653.133274"/>
      </g>
     </g>
     <g id="text_39">
      <!-- −30 -->
      <g transform="translate(96.392581 667.731712)scale(0.1 -0.1)">
       <use xlink:href="#DejaVuSans-8722"/>
       <use x="83.789062" xlink:href="#DejaVuSans-51"/>
       <use x="147.412109" xlink:href="#DejaVuSans-48"/>
      </g>
     </g>
    </g>
    <g id="xtick_21">
     <g id="line2d_38">
      <g>
       <use style="stroke:#000000;stroke-width:0.8;" x="141.531702" xlink:href="#mc0b26b8ee2" y="653.133274"/>
      </g>
     </g>
     <g id="text_40">
      <!-- −20 -->
      <g transform="translate(130.979358 667.731712)scale(0.1 -0.1)">
       <use xlink:href="#DejaVuSans-8722"/>
       <use x="83.789062" xlink:href="#DejaVuSans-50"/>
       <use x="147.412109" xlink:href="#DejaVuSans-48"/>
      </g>
     </g>
    </g>
    <g id="xtick_22">
     <g id="line2d_39">
      <g>
       <use style="stroke:#000000;stroke-width:0.8;" x="176.118479" xlink:href="#mc0b26b8ee2" y="653.133274"/>
      </g>
     </g>
     <g id="text_41">
      <!-- −10 -->
      <g transform="translate(165.566135 667.731712)scale(0.1 -0.1)">
       <use xlink:href="#DejaVuSans-8722"/>
       <use x="83.789062" xlink:href="#DejaVuSans-49"/>
       <use x="147.412109" xlink:href="#DejaVuSans-48"/>
      </g>
     </g>
    </g>
    <g id="xtick_23">
     <g id="line2d_40">
      <g>
       <use style="stroke:#000000;stroke-width:0.8;" x="210.705256" xlink:href="#mc0b26b8ee2" y="653.133274"/>
      </g>
     </g>
     <g id="text_42">
      <!-- 0 -->
      <g transform="translate(207.524006 667.731712)scale(0.1 -0.1)">
       <use xlink:href="#DejaVuSans-48"/>
      </g>
     </g>
    </g>
    <g id="xtick_24">
     <g id="line2d_41">
      <g>
       <use style="stroke:#000000;stroke-width:0.8;" x="245.292033" xlink:href="#mc0b26b8ee2" y="653.133274"/>
      </g>
     </g>
     <g id="text_43">
      <!-- 10 -->
      <g transform="translate(238.929533 667.731712)scale(0.1 -0.1)">
       <use xlink:href="#DejaVuSans-49"/>
       <use x="63.623047" xlink:href="#DejaVuSans-48"/>
      </g>
     </g>
    </g>
    <g id="xtick_25">
     <g id="line2d_42">
      <g>
       <use style="stroke:#000000;stroke-width:0.8;" x="279.878809" xlink:href="#mc0b26b8ee2" y="653.133274"/>
      </g>
     </g>
     <g id="text_44">
      <!-- 20 -->
      <g transform="translate(273.516309 667.731712)scale(0.1 -0.1)">
       <use xlink:href="#DejaVuSans-50"/>
       <use x="63.623047" xlink:href="#DejaVuSans-48"/>
      </g>
     </g>
    </g>
    <g id="xtick_26">
     <g id="line2d_43">
      <g>
       <use style="stroke:#000000;stroke-width:0.8;" x="314.465586" xlink:href="#mc0b26b8ee2" y="653.133274"/>
      </g>
     </g>
     <g id="text_45">
      <!-- 30 -->
      <g transform="translate(308.103086 667.731712)scale(0.1 -0.1)">
       <use xlink:href="#DejaVuSans-51"/>
       <use x="63.623047" xlink:href="#DejaVuSans-48"/>
      </g>
     </g>
    </g>
    <g id="xtick_27">
     <g id="line2d_44">
      <g>
       <use style="stroke:#000000;stroke-width:0.8;" x="349.052363" xlink:href="#mc0b26b8ee2" y="653.133274"/>
      </g>
     </g>
     <g id="text_46">
      <!-- 40 -->
      <g transform="translate(342.689863 667.731712)scale(0.1 -0.1)">
       <use xlink:href="#DejaVuSans-52"/>
       <use x="63.623047" xlink:href="#DejaVuSans-48"/>
      </g>
     </g>
    </g>
    <g id="text_47">
     <!-- $\Delta_b$ -->
     <g transform="translate(204.855256 681.409837)scale(0.1 -0.1)">
      <use transform="translate(0 0.09375)" xlink:href="#DejaVuSans-916"/>
      <use transform="translate(69.365234 -16.3125)scale(0.7)" xlink:href="#DejaVuSans-Oblique-98"/>
     </g>
    </g>
   </g>
   <g id="matplotlib.axis_6">
    <g id="ytick_16">
     <g id="line2d_45">
      <g>
       <use style="stroke:#000000;stroke-width:0.8;" x="58.523438" xlink:href="#m4d1cb32587" y="652.192998"/>
      </g>
     </g>
     <g id="text_48">
      <!-- 1.22 -->
      <g transform="translate(29.257812 655.992217)scale(0.1 -0.1)">
       <use xlink:href="#DejaVuSans-49"/>
       <use x="63.623047" xlink:href="#DejaVuSans-46"/>
       <use x="95.410156" xlink:href="#DejaVuSans-50"/>
       <use x="159.033203" xlink:href="#DejaVuSans-50"/>
      </g>
     </g>
    </g>
    <g id="ytick_17">
     <g id="line2d_46">
      <g>
       <use style="stroke:#000000;stroke-width:0.8;" x="58.523438" xlink:href="#m4d1cb32587" y="599.894025"/>
      </g>
     </g>
     <g id="text_49">
      <!-- 1.24 -->
      <g transform="translate(29.257812 603.693244)scale(0.1 -0.1)">
       <use xlink:href="#DejaVuSans-49"/>
       <use x="63.623047" xlink:href="#DejaVuSans-46"/>
       <use x="95.410156" xlink:href="#DejaVuSans-50"/>
       <use x="159.033203" xlink:href="#DejaVuSans-52"/>
      </g>
     </g>
    </g>
    <g id="ytick_18">
     <g id="line2d_47">
      <g>
       <use style="stroke:#000000;stroke-width:0.8;" x="58.523438" xlink:href="#m4d1cb32587" y="547.595052"/>
      </g>
     </g>
     <g id="text_50">
      <!-- 1.26 -->
      <g transform="translate(29.257812 551.394271)scale(0.1 -0.1)">
       <use xlink:href="#DejaVuSans-49"/>
       <use x="63.623047" xlink:href="#DejaVuSans-46"/>
       <use x="95.410156" xlink:href="#DejaVuSans-50"/>
       <use x="159.033203" xlink:href="#DejaVuSans-54"/>
      </g>
     </g>
    </g>
    <g id="ytick_19">
     <g id="line2d_48">
      <g>
       <use style="stroke:#000000;stroke-width:0.8;" x="58.523438" xlink:href="#m4d1cb32587" y="495.296079"/>
      </g>
     </g>
     <g id="text_51">
      <!-- 1.28 -->
      <g transform="translate(29.257812 499.095298)scale(0.1 -0.1)">
       <use xlink:href="#DejaVuSans-49"/>
       <use x="63.623047" xlink:href="#DejaVuSans-46"/>
       <use x="95.410156" xlink:href="#DejaVuSans-50"/>
       <use x="159.033203" xlink:href="#DejaVuSans-56"/>
      </g>
     </g>
    </g>
    <g id="ytick_20">
     <g id="line2d_49">
      <g>
       <use style="stroke:#000000;stroke-width:0.8;" x="58.523438" xlink:href="#m4d1cb32587" y="442.997106"/>
      </g>
     </g>
     <g id="text_52">
      <!-- 1.30 -->
      <g transform="translate(29.257812 446.796325)scale(0.1 -0.1)">
       <use xlink:href="#DejaVuSans-49"/>
       <use x="63.623047" xlink:href="#DejaVuSans-46"/>
       <use x="95.410156" xlink:href="#DejaVuSans-51"/>
       <use x="159.033203" xlink:href="#DejaVuSans-48"/>
      </g>
     </g>
    </g>
    <g id="ytick_21">
     <g id="line2d_50">
      <g>
       <use style="stroke:#000000;stroke-width:0.8;" x="58.523438" xlink:href="#m4d1cb32587" y="390.698133"/>
      </g>
     </g>
     <g id="text_53">
      <!-- 1.32 -->
      <g transform="translate(29.257812 394.497352)scale(0.1 -0.1)">
       <use xlink:href="#DejaVuSans-49"/>
       <use x="63.623047" xlink:href="#DejaVuSans-46"/>
       <use x="95.410156" xlink:href="#DejaVuSans-51"/>
       <use x="159.033203" xlink:href="#DejaVuSans-50"/>
      </g>
     </g>
    </g>
    <g id="text_54">
     <!-- $g_2a$ -->
     <g transform="translate(23.157812 515.030333)rotate(-90)scale(0.1 -0.1)">
      <use xlink:href="#DejaVuSans-Oblique-103"/>
      <use transform="translate(63.476562 -16.40625)scale(0.7)" xlink:href="#DejaVuSans-50"/>
      <use transform="translate(110.74707 0)" xlink:href="#DejaVuSans-Oblique-97"/>
     </g>
    </g>
   </g>
   <g id="line2d_51">
    <path clip-path="url(#p85a18a8c15)" d="M 72.358148 397.256205 
L 75.860607 387.541864 
L 79.363065 379.46875 
L 82.865523 372.968569 
L 86.367982 405.730009 
L 89.87044 393.882387 
L 93.372899 384.062989 
L 96.875357 376.222699 
L 100.377816 403.302358 
L 103.880274 391.14808 
L 107.382732 381.415308 
L 110.885191 405.233898 
L 114.387649 392.105693 
L 117.890108 381.848337 
L 121.392566 399.87472 
L 124.895024 387.542671 
L 128.397483 403.475073 
L 131.899941 390.062652 
L 135.4024 402.501013 
L 138.904858 414.622415 
L 142.407317 398.069136 
L 145.909775 405.801627 
L 149.412233 411.88085 
L 152.914692 415.976987 
L 156.41715 417.996226 
L 159.919609 418.044518 
L 163.422067 435.929919 
L 166.924525 430.621975 
L 170.426984 441.318139 
L 173.929442 448.197248 
L 177.431901 451.560694 
L 180.934359 465.703512 
L 184.436818 488.194327 
L 187.939276 504.045055 
L 191.441734 525.568488 
L 194.944193 551.151429 
L 198.446651 571.46913 
L 201.94911 605.797257 
L 205.451568 625.786517 
L 208.954026 639.792098 
L 212.456485 639.792098 
L 215.958943 625.786517 
L 219.461402 605.797257 
L 222.96386 571.46913 
L 226.466319 551.151429 
L 229.968777 525.568488 
L 233.471235 504.045055 
L 236.973694 488.194327 
L 240.476152 465.703512 
L 243.978611 451.560694 
L 247.481069 448.197248 
L 250.983527 441.318139 
L 254.485986 430.621975 
L 257.988444 435.929919 
L 261.490903 418.044518 
L 264.993361 417.996226 
L 268.49582 415.976987 
L 271.998278 411.88085 
L 275.500736 405.801627 
L 279.003195 398.069136 
L 282.505653 414.622415 
L 286.008112 402.501013 
L 289.51057 390.062652 
L 293.013028 403.475073 
L 296.515487 387.542671 
L 300.017945 399.87472 
L 303.520404 381.848337 
L 307.022862 392.105693 
L 310.525321 405.233898 
L 314.027779 381.415308 
L 317.530237 391.14808 
L 321.032696 403.302358 
L 324.535154 376.222699 
L 328.037613 384.062989 
L 331.540071 393.882387 
L 335.042529 405.730009 
L 338.544988 372.968569 
L 342.047446 379.46875 
L 345.549905 387.541864 
L 349.052363 397.256205 
" style="fill:none;stroke:#1f77b4;stroke-dasharray:9.6,2.4,1.5,2.4;stroke-dashoffset:0;stroke-width:1.5;"/>
   </g>
   <g id="patch_13">
    <path d="M 58.523438 653.133274 
L 58.523438 359.627392 
" style="fill:none;stroke:#000000;stroke-linecap:square;stroke-linejoin:miter;stroke-width:0.8;"/>
   </g>
   <g id="patch_14">
    <path d="M 362.887074 653.133274 
L 362.887074 359.627392 
" style="fill:none;stroke:#000000;stroke-linecap:square;stroke-linejoin:miter;stroke-width:0.8;"/>
   </g>
   <g id="patch_15">
    <path d="M 58.523438 653.133274 
L 362.887074 653.133274 
" style="fill:none;stroke:#000000;stroke-linecap:square;stroke-linejoin:miter;stroke-width:0.8;"/>
   </g>
   <g id="patch_16">
    <path d="M 58.523438 359.627392 
L 362.887074 359.627392 
" style="fill:none;stroke:#000000;stroke-linecap:square;stroke-linejoin:miter;stroke-width:0.8;"/>
   </g>
  </g>
  <g id="axes_4">
   <g id="patch_17">
    <path d="M 423.759801 653.133274 
L 728.123437 653.133274 
L 728.123437 359.627392 
L 423.759801 359.627392 
z
" style="fill:#ffffff;"/>
   </g>
   <g id="matplotlib.axis_7">
    <g id="xtick_28">
     <g id="line2d_52">
      <g>
       <use style="stroke:#000000;stroke-width:0.8;" x="437.594512" xlink:href="#mc0b26b8ee2" y="653.133274"/>
      </g>
     </g>
     <g id="text_55">
      <!-- −40 -->
      <g transform="translate(427.042168 667.731712)scale(0.1 -0.1)">
       <use xlink:href="#DejaVuSans-8722"/>
       <use x="83.789062" xlink:href="#DejaVuSans-52"/>
       <use x="147.412109" xlink:href="#DejaVuSans-48"/>
      </g>
     </g>
    </g>
    <g id="xtick_29">
     <g id="line2d_53">
      <g>
       <use style="stroke:#000000;stroke-width:0.8;" x="472.181289" xlink:href="#mc0b26b8ee2" y="653.133274"/>
      </g>
     </g>
     <g id="text_56">
      <!-- −30 -->
      <g transform="translate(461.628945 667.731712)scale(0.1 -0.1)">
       <use xlink:href="#DejaVuSans-8722"/>
       <use x="83.789062" xlink:href="#DejaVuSans-51"/>
       <use x="147.412109" xlink:href="#DejaVuSans-48"/>
      </g>
     </g>
    </g>
    <g id="xtick_30">
     <g id="line2d_54">
      <g>
       <use style="stroke:#000000;stroke-width:0.8;" x="506.768066" xlink:href="#mc0b26b8ee2" y="653.133274"/>
      </g>
     </g>
     <g id="text_57">
      <!-- −20 -->
      <g transform="translate(496.215722 667.731712)scale(0.1 -0.1)">
       <use xlink:href="#DejaVuSans-8722"/>
       <use x="83.789062" xlink:href="#DejaVuSans-50"/>
       <use x="147.412109" xlink:href="#DejaVuSans-48"/>
      </g>
     </g>
    </g>
    <g id="xtick_31">
     <g id="line2d_55">
      <g>
       <use style="stroke:#000000;stroke-width:0.8;" x="541.354842" xlink:href="#mc0b26b8ee2" y="653.133274"/>
      </g>
     </g>
     <g id="text_58">
      <!-- −10 -->
      <g transform="translate(530.802499 667.731712)scale(0.1 -0.1)">
       <use xlink:href="#DejaVuSans-8722"/>
       <use x="83.789062" xlink:href="#DejaVuSans-49"/>
       <use x="147.412109" xlink:href="#DejaVuSans-48"/>
      </g>
     </g>
    </g>
    <g id="xtick_32">
     <g id="line2d_56">
      <g>
       <use style="stroke:#000000;stroke-width:0.8;" x="575.941619" xlink:href="#mc0b26b8ee2" y="653.133274"/>
      </g>
     </g>
     <g id="text_59">
      <!-- 0 -->
      <g transform="translate(572.760369 667.731712)scale(0.1 -0.1)">
       <use xlink:href="#DejaVuSans-48"/>
      </g>
     </g>
    </g>
    <g id="xtick_33">
     <g id="line2d_57">
      <g>
       <use style="stroke:#000000;stroke-width:0.8;" x="610.528396" xlink:href="#mc0b26b8ee2" y="653.133274"/>
      </g>
     </g>
     <g id="text_60">
      <!-- 10 -->
      <g transform="translate(604.165896 667.731712)scale(0.1 -0.1)">
       <use xlink:href="#DejaVuSans-49"/>
       <use x="63.623047" xlink:href="#DejaVuSans-48"/>
      </g>
     </g>
    </g>
    <g id="xtick_34">
     <g id="line2d_58">
      <g>
       <use style="stroke:#000000;stroke-width:0.8;" x="645.115173" xlink:href="#mc0b26b8ee2" y="653.133274"/>
      </g>
     </g>
     <g id="text_61">
      <!-- 20 -->
      <g transform="translate(638.752673 667.731712)scale(0.1 -0.1)">
       <use xlink:href="#DejaVuSans-50"/>
       <use x="63.623047" xlink:href="#DejaVuSans-48"/>
      </g>
     </g>
    </g>
    <g id="xtick_35">
     <g id="line2d_59">
      <g>
       <use style="stroke:#000000;stroke-width:0.8;" x="679.70195" xlink:href="#mc0b26b8ee2" y="653.133274"/>
      </g>
     </g>
     <g id="text_62">
      <!-- 30 -->
      <g transform="translate(673.33945 667.731712)scale(0.1 -0.1)">
       <use xlink:href="#DejaVuSans-51"/>
       <use x="63.623047" xlink:href="#DejaVuSans-48"/>
      </g>
     </g>
    </g>
    <g id="xtick_36">
     <g id="line2d_60">
      <g>
       <use style="stroke:#000000;stroke-width:0.8;" x="714.288727" xlink:href="#mc0b26b8ee2" y="653.133274"/>
      </g>
     </g>
     <g id="text_63">
      <!-- 40 -->
      <g transform="translate(707.926227 667.731712)scale(0.1 -0.1)">
       <use xlink:href="#DejaVuSans-52"/>
       <use x="63.623047" xlink:href="#DejaVuSans-48"/>
      </g>
     </g>
    </g>
    <g id="text_64">
     <!-- $\Delta_b$ -->
     <g transform="translate(570.091619 681.409837)scale(0.1 -0.1)">
      <use transform="translate(0 0.09375)" xlink:href="#DejaVuSans-916"/>
      <use transform="translate(69.365234 -16.3125)scale(0.7)" xlink:href="#DejaVuSans-Oblique-98"/>
     </g>
    </g>
   </g>
   <g id="matplotlib.axis_8">
    <g id="ytick_22">
     <g id="line2d_61">
      <g>
       <use style="stroke:#000000;stroke-width:0.8;" x="423.759801" xlink:href="#m4d1cb32587" y="613.109745"/>
      </g>
     </g>
     <g id="text_65">
      <!-- −0.04 -->
      <g transform="translate(386.114489 616.908964)scale(0.1 -0.1)">
       <use xlink:href="#DejaVuSans-8722"/>
       <use x="83.789062" xlink:href="#DejaVuSans-48"/>
       <use x="147.412109" xlink:href="#DejaVuSans-46"/>
       <use x="179.199219" xlink:href="#DejaVuSans-48"/>
       <use x="242.822266" xlink:href="#DejaVuSans-52"/>
      </g>
     </g>
    </g>
    <g id="ytick_23">
     <g id="line2d_62">
      <g>
       <use style="stroke:#000000;stroke-width:0.8;" x="423.759801" xlink:href="#m4d1cb32587" y="559.745039"/>
      </g>
     </g>
     <g id="text_66">
      <!-- −0.02 -->
      <g transform="translate(386.114489 563.544258)scale(0.1 -0.1)">
       <use xlink:href="#DejaVuSans-8722"/>
       <use x="83.789062" xlink:href="#DejaVuSans-48"/>
       <use x="147.412109" xlink:href="#DejaVuSans-46"/>
       <use x="179.199219" xlink:href="#DejaVuSans-48"/>
       <use x="242.822266" xlink:href="#DejaVuSans-50"/>
      </g>
     </g>
    </g>
    <g id="ytick_24">
     <g id="line2d_63">
      <g>
       <use style="stroke:#000000;stroke-width:0.8;" x="423.759801" xlink:href="#m4d1cb32587" y="506.380333"/>
      </g>
     </g>
     <g id="text_67">
      <!-- 0.00 -->
      <g transform="translate(394.494176 510.179552)scale(0.1 -0.1)">
       <use xlink:href="#DejaVuSans-48"/>
       <use x="63.623047" xlink:href="#DejaVuSans-46"/>
       <use x="95.410156" xlink:href="#DejaVuSans-48"/>
       <use x="159.033203" xlink:href="#DejaVuSans-48"/>
      </g>
     </g>
    </g>
    <g id="ytick_25">
     <g id="line2d_64">
      <g>
       <use style="stroke:#000000;stroke-width:0.8;" x="423.759801" xlink:href="#m4d1cb32587" y="453.015627"/>
      </g>
     </g>
     <g id="text_68">
      <!-- 0.02 -->
      <g transform="translate(394.494176 456.814846)scale(0.1 -0.1)">
       <use xlink:href="#DejaVuSans-48"/>
       <use x="63.623047" xlink:href="#DejaVuSans-46"/>
       <use x="95.410156" xlink:href="#DejaVuSans-48"/>
       <use x="159.033203" xlink:href="#DejaVuSans-50"/>
      </g>
     </g>
    </g>
    <g id="ytick_26">
     <g id="line2d_65">
      <g>
       <use style="stroke:#000000;stroke-width:0.8;" x="423.759801" xlink:href="#m4d1cb32587" y="399.650921"/>
      </g>
     </g>
     <g id="text_69">
      <!-- 0.04 -->
      <g transform="translate(394.494176 403.45014)scale(0.1 -0.1)">
       <use xlink:href="#DejaVuSans-48"/>
       <use x="63.623047" xlink:href="#DejaVuSans-46"/>
       <use x="95.410156" xlink:href="#DejaVuSans-48"/>
       <use x="159.033203" xlink:href="#DejaVuSans-52"/>
      </g>
     </g>
    </g>
    <g id="text_70">
     <!-- $g_2b$ -->
     <g transform="translate(380.014489 515.130333)rotate(-90)scale(0.1 -0.1)">
      <use transform="translate(0 0.015625)" xlink:href="#DejaVuSans-Oblique-103"/>
      <use transform="translate(63.476562 -16.390625)scale(0.7)" xlink:href="#DejaVuSans-50"/>
      <use transform="translate(110.74707 0.015625)" xlink:href="#DejaVuSans-Oblique-98"/>
     </g>
    </g>
   </g>
   <g id="line2d_66">
    <path clip-path="url(#pf71fb8304d)" d="M 437.594512 506.380333 
L 441.09697 506.380333 
L 444.599429 506.380333 
L 448.101887 506.380333 
L 451.604346 506.380333 
L 455.106804 506.380333 
L 458.609262 506.380333 
L 462.111721 506.380333 
L 465.614179 506.380333 
L 469.116638 506.380333 
L 472.619096 506.380333 
L 476.121554 506.380333 
L 479.624013 506.380333 
L 483.126471 506.380333 
L 486.62893 506.380333 
L 490.131388 506.380333 
L 493.633847 506.380333 
L 497.136305 506.380333 
L 500.638763 506.380333 
L 504.141222 506.380333 
L 507.64368 506.380333 
L 511.146139 506.380333 
L 514.648597 506.380333 
L 518.151055 506.380333 
L 521.653514 506.380333 
L 525.155972 506.380333 
L 528.658431 506.380333 
L 532.160889 506.380333 
L 535.663348 506.380333 
L 539.165806 506.380333 
L 542.668264 506.380333 
L 546.170723 506.380333 
L 549.673181 506.380333 
L 553.17564 506.380333 
L 556.678098 506.380333 
L 560.180556 506.380333 
L 563.683015 506.380333 
L 567.185473 506.380333 
L 570.687932 506.380333 
L 574.19039 506.380333 
L 577.692849 506.380333 
L 581.195307 506.380333 
L 584.697765 506.380333 
L 588.200224 506.380333 
L 591.702682 506.380333 
L 595.205141 506.380333 
L 598.707599 506.380333 
L 602.210057 506.380333 
L 605.712516 506.380333 
L 609.214974 506.380333 
L 612.717433 506.380333 
L 616.219891 506.380333 
L 619.72235 506.380333 
L 623.224808 506.380333 
L 626.727266 506.380333 
L 630.229725 506.380333 
L 633.732183 506.380333 
L 637.234642 506.380333 
L 640.7371 506.380333 
L 644.239558 506.380333 
L 647.742017 506.380333 
L 651.244475 506.380333 
L 654.746934 506.380333 
L 658.249392 506.380333 
L 661.751851 506.380333 
L 665.254309 506.380333 
L 668.756767 506.380333 
L 672.259226 506.380333 
L 675.761684 506.380333 
L 679.264143 506.380333 
L 682.766601 506.380333 
L 686.269059 506.380333 
L 689.771518 506.380333 
L 693.273976 506.380333 
L 696.776435 506.380333 
L 700.278893 506.380333 
L 703.781352 506.380333 
L 707.28381 506.380333 
L 710.786268 506.380333 
L 714.288727 506.380333 
" style="fill:none;stroke:#1f77b4;stroke-dasharray:9.6,2.4,1.5,2.4;stroke-dashoffset:0;stroke-width:1.5;"/>
   </g>
   <g id="patch_18">
    <path d="M 423.759801 653.133274 
L 423.759801 359.627392 
" style="fill:none;stroke:#000000;stroke-linecap:square;stroke-linejoin:miter;stroke-width:0.8;"/>
   </g>
   <g id="patch_19">
    <path d="M 728.123437 653.133274 
L 728.123437 359.627392 
" style="fill:none;stroke:#000000;stroke-linecap:square;stroke-linejoin:miter;stroke-width:0.8;"/>
   </g>
   <g id="patch_20">
    <path d="M 423.759801 653.133274 
L 728.123437 653.133274 
" style="fill:none;stroke:#000000;stroke-linecap:square;stroke-linejoin:miter;stroke-width:0.8;"/>
   </g>
   <g id="patch_21">
    <path d="M 423.759801 359.627392 
L 728.123437 359.627392 
" style="fill:none;stroke:#000000;stroke-linecap:square;stroke-linejoin:miter;stroke-width:0.8;"/>
   </g>
  </g>
  <g id="axes_5">
   <g id="patch_22">
    <path d="M 58.523438 1005.340333 
L 362.887074 1005.340333 
L 362.887074 711.834451 
L 58.523438 711.834451 
z
" style="fill:#ffffff;"/>
   </g>
   <g id="matplotlib.axis_9">
    <g id="xtick_37">
     <g id="line2d_67">
      <g>
       <use style="stroke:#000000;stroke-width:0.8;" x="72.358148" xlink:href="#mc0b26b8ee2" y="1005.340333"/>
      </g>
     </g>
     <g id="text_71">
      <!-- −40 -->
      <g transform="translate(61.805804 1019.938771)scale(0.1 -0.1)">
       <use xlink:href="#DejaVuSans-8722"/>
       <use x="83.789062" xlink:href="#DejaVuSans-52"/>
       <use x="147.412109" xlink:href="#DejaVuSans-48"/>
      </g>
     </g>
    </g>
    <g id="xtick_38">
     <g id="line2d_68">
      <g>
       <use style="stroke:#000000;stroke-width:0.8;" x="106.944925" xlink:href="#mc0b26b8ee2" y="1005.340333"/>
      </g>
     </g>
     <g id="text_72">
      <!-- −30 -->
      <g transform="translate(96.392581 1019.938771)scale(0.1 -0.1)">
       <use xlink:href="#DejaVuSans-8722"/>
       <use x="83.789062" xlink:href="#DejaVuSans-51"/>
       <use x="147.412109" xlink:href="#DejaVuSans-48"/>
      </g>
     </g>
    </g>
    <g id="xtick_39">
     <g id="line2d_69">
      <g>
       <use style="stroke:#000000;stroke-width:0.8;" x="141.531702" xlink:href="#mc0b26b8ee2" y="1005.340333"/>
      </g>
     </g>
     <g id="text_73">
      <!-- −20 -->
      <g transform="translate(130.979358 1019.938771)scale(0.1 -0.1)">
       <use xlink:href="#DejaVuSans-8722"/>
       <use x="83.789062" xlink:href="#DejaVuSans-50"/>
       <use x="147.412109" xlink:href="#DejaVuSans-48"/>
      </g>
     </g>
    </g>
    <g id="xtick_40">
     <g id="line2d_70">
      <g>
       <use style="stroke:#000000;stroke-width:0.8;" x="176.118479" xlink:href="#mc0b26b8ee2" y="1005.340333"/>
      </g>
     </g>
     <g id="text_74">
      <!-- −10 -->
      <g transform="translate(165.566135 1019.938771)scale(0.1 -0.1)">
       <use xlink:href="#DejaVuSans-8722"/>
       <use x="83.789062" xlink:href="#DejaVuSans-49"/>
       <use x="147.412109" xlink:href="#DejaVuSans-48"/>
      </g>
     </g>
    </g>
    <g id="xtick_41">
     <g id="line2d_71">
      <g>
       <use style="stroke:#000000;stroke-width:0.8;" x="210.705256" xlink:href="#mc0b26b8ee2" y="1005.340333"/>
      </g>
     </g>
     <g id="text_75">
      <!-- 0 -->
      <g transform="translate(207.524006 1019.938771)scale(0.1 -0.1)">
       <use xlink:href="#DejaVuSans-48"/>
      </g>
     </g>
    </g>
    <g id="xtick_42">
     <g id="line2d_72">
      <g>
       <use style="stroke:#000000;stroke-width:0.8;" x="245.292033" xlink:href="#mc0b26b8ee2" y="1005.340333"/>
      </g>
     </g>
     <g id="text_76">
      <!-- 10 -->
      <g transform="translate(238.929533 1019.938771)scale(0.1 -0.1)">
       <use xlink:href="#DejaVuSans-49"/>
       <use x="63.623047" xlink:href="#DejaVuSans-48"/>
      </g>
     </g>
    </g>
    <g id="xtick_43">
     <g id="line2d_73">
      <g>
       <use style="stroke:#000000;stroke-width:0.8;" x="279.878809" xlink:href="#mc0b26b8ee2" y="1005.340333"/>
      </g>
     </g>
     <g id="text_77">
      <!-- 20 -->
      <g transform="translate(273.516309 1019.938771)scale(0.1 -0.1)">
       <use xlink:href="#DejaVuSans-50"/>
       <use x="63.623047" xlink:href="#DejaVuSans-48"/>
      </g>
     </g>
    </g>
    <g id="xtick_44">
     <g id="line2d_74">
      <g>
       <use style="stroke:#000000;stroke-width:0.8;" x="314.465586" xlink:href="#mc0b26b8ee2" y="1005.340333"/>
      </g>
     </g>
     <g id="text_78">
      <!-- 30 -->
      <g transform="translate(308.103086 1019.938771)scale(0.1 -0.1)">
       <use xlink:href="#DejaVuSans-51"/>
       <use x="63.623047" xlink:href="#DejaVuSans-48"/>
      </g>
     </g>
    </g>
    <g id="xtick_45">
     <g id="line2d_75">
      <g>
       <use style="stroke:#000000;stroke-width:0.8;" x="349.052363" xlink:href="#mc0b26b8ee2" y="1005.340333"/>
      </g>
     </g>
     <g id="text_79">
      <!-- 40 -->
      <g transform="translate(342.689863 1019.938771)scale(0.1 -0.1)">
       <use xlink:href="#DejaVuSans-52"/>
       <use x="63.623047" xlink:href="#DejaVuSans-48"/>
      </g>
     </g>
    </g>
    <g id="text_80">
     <!-- $\Delta_b$ -->
     <g transform="translate(204.855256 1033.616896)scale(0.1 -0.1)">
      <use transform="translate(0 0.09375)" xlink:href="#DejaVuSans-916"/>
      <use transform="translate(69.365234 -16.3125)scale(0.7)" xlink:href="#DejaVuSans-Oblique-98"/>
     </g>
    </g>
   </g>
   <g id="matplotlib.axis_10">
    <g id="ytick_27">
     <g id="line2d_76">
      <g>
       <use style="stroke:#000000;stroke-width:0.8;" x="58.523438" xlink:href="#m4d1cb32587" y="965.316804"/>
      </g>
     </g>
     <g id="text_81">
      <!-- −0.04 -->
      <g transform="translate(20.878125 969.116023)scale(0.1 -0.1)">
       <use xlink:href="#DejaVuSans-8722"/>
       <use x="83.789062" xlink:href="#DejaVuSans-48"/>
       <use x="147.412109" xlink:href="#DejaVuSans-46"/>
       <use x="179.199219" xlink:href="#DejaVuSans-48"/>
       <use x="242.822266" xlink:href="#DejaVuSans-52"/>
      </g>
     </g>
    </g>
    <g id="ytick_28">
     <g id="line2d_77">
      <g>
       <use style="stroke:#000000;stroke-width:0.8;" x="58.523438" xlink:href="#m4d1cb32587" y="911.952098"/>
      </g>
     </g>
     <g id="text_82">
      <!-- −0.02 -->
      <g transform="translate(20.878125 915.751317)scale(0.1 -0.1)">
       <use xlink:href="#DejaVuSans-8722"/>
       <use x="83.789062" xlink:href="#DejaVuSans-48"/>
       <use x="147.412109" xlink:href="#DejaVuSans-46"/>
       <use x="179.199219" xlink:href="#DejaVuSans-48"/>
       <use x="242.822266" xlink:href="#DejaVuSans-50"/>
      </g>
     </g>
    </g>
    <g id="ytick_29">
     <g id="line2d_78">
      <g>
       <use style="stroke:#000000;stroke-width:0.8;" x="58.523438" xlink:href="#m4d1cb32587" y="858.587392"/>
      </g>
     </g>
     <g id="text_83">
      <!-- 0.00 -->
      <g transform="translate(29.257812 862.386611)scale(0.1 -0.1)">
       <use xlink:href="#DejaVuSans-48"/>
       <use x="63.623047" xlink:href="#DejaVuSans-46"/>
       <use x="95.410156" xlink:href="#DejaVuSans-48"/>
       <use x="159.033203" xlink:href="#DejaVuSans-48"/>
      </g>
     </g>
    </g>
    <g id="ytick_30">
     <g id="line2d_79">
      <g>
       <use style="stroke:#000000;stroke-width:0.8;" x="58.523438" xlink:href="#m4d1cb32587" y="805.222686"/>
      </g>
     </g>
     <g id="text_84">
      <!-- 0.02 -->
      <g transform="translate(29.257812 809.021905)scale(0.1 -0.1)">
       <use xlink:href="#DejaVuSans-48"/>
       <use x="63.623047" xlink:href="#DejaVuSans-46"/>
       <use x="95.410156" xlink:href="#DejaVuSans-48"/>
       <use x="159.033203" xlink:href="#DejaVuSans-50"/>
      </g>
     </g>
    </g>
    <g id="ytick_31">
     <g id="line2d_80">
      <g>
       <use style="stroke:#000000;stroke-width:0.8;" x="58.523438" xlink:href="#m4d1cb32587" y="751.85798"/>
      </g>
     </g>
     <g id="text_85">
      <!-- 0.04 -->
      <g transform="translate(29.257812 755.657199)scale(0.1 -0.1)">
       <use xlink:href="#DejaVuSans-48"/>
       <use x="63.623047" xlink:href="#DejaVuSans-46"/>
       <use x="95.410156" xlink:href="#DejaVuSans-48"/>
       <use x="159.033203" xlink:href="#DejaVuSans-52"/>
      </g>
     </g>
    </g>
    <g id="text_86">
     <!-- $g_2c$ -->
     <g transform="translate(14.778125 866.887392)rotate(-90)scale(0.1 -0.1)">
      <use xlink:href="#DejaVuSans-Oblique-103"/>
      <use transform="translate(63.476562 -16.40625)scale(0.7)" xlink:href="#DejaVuSans-50"/>
      <use transform="translate(110.74707 0)" xlink:href="#DejaVuSans-Oblique-99"/>
     </g>
    </g>
   </g>
   <g id="line2d_81">
    <path clip-path="url(#pab203362bb)" d="M 72.358148 858.587392 
L 75.860607 858.587392 
L 79.363065 858.587392 
L 82.865523 858.587392 
L 86.367982 858.587392 
L 89.87044 858.587392 
L 93.372899 858.587392 
L 96.875357 858.587392 
L 100.377816 858.587392 
L 103.880274 858.587392 
L 107.382732 858.587392 
L 110.885191 858.587392 
L 114.387649 858.587392 
L 117.890108 858.587392 
L 121.392566 858.587392 
L 124.895024 858.587392 
L 128.397483 858.587392 
L 131.899941 858.587392 
L 135.4024 858.587392 
L 138.904858 858.587392 
L 142.407317 858.587392 
L 145.909775 858.587392 
L 149.412233 858.587392 
L 152.914692 858.587392 
L 156.41715 858.587392 
L 159.919609 858.587392 
L 163.422067 858.587392 
L 166.924525 858.587392 
L 170.426984 858.587392 
L 173.929442 858.587392 
L 177.431901 858.587392 
L 180.934359 858.587392 
L 184.436818 858.587392 
L 187.939276 858.587392 
L 191.441734 858.587392 
L 194.944193 858.587392 
L 198.446651 858.587392 
L 201.94911 858.587392 
L 205.451568 858.587392 
L 208.954026 858.587392 
L 212.456485 858.587392 
L 215.958943 858.587392 
L 219.461402 858.587392 
L 222.96386 858.587392 
L 226.466319 858.587392 
L 229.968777 858.587392 
L 233.471235 858.587392 
L 236.973694 858.587392 
L 240.476152 858.587392 
L 243.978611 858.587392 
L 247.481069 858.587392 
L 250.983527 858.587392 
L 254.485986 858.587392 
L 257.988444 858.587392 
L 261.490903 858.587392 
L 264.993361 858.587392 
L 268.49582 858.587392 
L 271.998278 858.587392 
L 275.500736 858.587392 
L 279.003195 858.587392 
L 282.505653 858.587392 
L 286.008112 858.587392 
L 289.51057 858.587392 
L 293.013028 858.587392 
L 296.515487 858.587392 
L 300.017945 858.587392 
L 303.520404 858.587392 
L 307.022862 858.587392 
L 310.525321 858.587392 
L 314.027779 858.587392 
L 317.530237 858.587392 
L 321.032696 858.587392 
L 324.535154 858.587392 
L 328.037613 858.587392 
L 331.540071 858.587392 
L 335.042529 858.587392 
L 338.544988 858.587392 
L 342.047446 858.587392 
L 345.549905 858.587392 
L 349.052363 858.587392 
" style="fill:none;stroke:#1f77b4;stroke-dasharray:9.6,2.4,1.5,2.4;stroke-dashoffset:0;stroke-width:1.5;"/>
   </g>
   <g id="patch_23">
    <path d="M 58.523438 1005.340333 
L 58.523438 711.834451 
" style="fill:none;stroke:#000000;stroke-linecap:square;stroke-linejoin:miter;stroke-width:0.8;"/>
   </g>
   <g id="patch_24">
    <path d="M 362.887074 1005.340333 
L 362.887074 711.834451 
" style="fill:none;stroke:#000000;stroke-linecap:square;stroke-linejoin:miter;stroke-width:0.8;"/>
   </g>
   <g id="patch_25">
    <path d="M 58.523438 1005.340333 
L 362.887074 1005.340333 
" style="fill:none;stroke:#000000;stroke-linecap:square;stroke-linejoin:miter;stroke-width:0.8;"/>
   </g>
   <g id="patch_26">
    <path d="M 58.523438 711.834451 
L 362.887074 711.834451 
" style="fill:none;stroke:#000000;stroke-linecap:square;stroke-linejoin:miter;stroke-width:0.8;"/>
   </g>
  </g>
  <g id="axes_6">
   <g id="patch_27">
    <path d="M 423.759801 1005.340333 
L 728.123437 1005.340333 
L 728.123437 711.834451 
L 423.759801 711.834451 
z
" style="fill:#ffffff;"/>
   </g>
   <g id="matplotlib.axis_11">
    <g id="xtick_46">
     <g id="line2d_82">
      <g>
       <use style="stroke:#000000;stroke-width:0.8;" x="437.594512" xlink:href="#mc0b26b8ee2" y="1005.340333"/>
      </g>
     </g>
     <g id="text_87">
      <!-- −40 -->
      <g transform="translate(427.042168 1019.938771)scale(0.1 -0.1)">
       <use xlink:href="#DejaVuSans-8722"/>
       <use x="83.789062" xlink:href="#DejaVuSans-52"/>
       <use x="147.412109" xlink:href="#DejaVuSans-48"/>
      </g>
     </g>
    </g>
    <g id="xtick_47">
     <g id="line2d_83">
      <g>
       <use style="stroke:#000000;stroke-width:0.8;" x="472.181289" xlink:href="#mc0b26b8ee2" y="1005.340333"/>
      </g>
     </g>
     <g id="text_88">
      <!-- −30 -->
      <g transform="translate(461.628945 1019.938771)scale(0.1 -0.1)">
       <use xlink:href="#DejaVuSans-8722"/>
       <use x="83.789062" xlink:href="#DejaVuSans-51"/>
       <use x="147.412109" xlink:href="#DejaVuSans-48"/>
      </g>
     </g>
    </g>
    <g id="xtick_48">
     <g id="line2d_84">
      <g>
       <use style="stroke:#000000;stroke-width:0.8;" x="506.768066" xlink:href="#mc0b26b8ee2" y="1005.340333"/>
      </g>
     </g>
     <g id="text_89">
      <!-- −20 -->
      <g transform="translate(496.215722 1019.938771)scale(0.1 -0.1)">
       <use xlink:href="#DejaVuSans-8722"/>
       <use x="83.789062" xlink:href="#DejaVuSans-50"/>
       <use x="147.412109" xlink:href="#DejaVuSans-48"/>
      </g>
     </g>
    </g>
    <g id="xtick_49">
     <g id="line2d_85">
      <g>
       <use style="stroke:#000000;stroke-width:0.8;" x="541.354842" xlink:href="#mc0b26b8ee2" y="1005.340333"/>
      </g>
     </g>
     <g id="text_90">
      <!-- −10 -->
      <g transform="translate(530.802499 1019.938771)scale(0.1 -0.1)">
       <use xlink:href="#DejaVuSans-8722"/>
       <use x="83.789062" xlink:href="#DejaVuSans-49"/>
       <use x="147.412109" xlink:href="#DejaVuSans-48"/>
      </g>
     </g>
    </g>
    <g id="xtick_50">
     <g id="line2d_86">
      <g>
       <use style="stroke:#000000;stroke-width:0.8;" x="575.941619" xlink:href="#mc0b26b8ee2" y="1005.340333"/>
      </g>
     </g>
     <g id="text_91">
      <!-- 0 -->
      <g transform="translate(572.760369 1019.938771)scale(0.1 -0.1)">
       <use xlink:href="#DejaVuSans-48"/>
      </g>
     </g>
    </g>
    <g id="xtick_51">
     <g id="line2d_87">
      <g>
       <use style="stroke:#000000;stroke-width:0.8;" x="610.528396" xlink:href="#mc0b26b8ee2" y="1005.340333"/>
      </g>
     </g>
     <g id="text_92">
      <!-- 10 -->
      <g transform="translate(604.165896 1019.938771)scale(0.1 -0.1)">
       <use xlink:href="#DejaVuSans-49"/>
       <use x="63.623047" xlink:href="#DejaVuSans-48"/>
      </g>
     </g>
    </g>
    <g id="xtick_52">
     <g id="line2d_88">
      <g>
       <use style="stroke:#000000;stroke-width:0.8;" x="645.115173" xlink:href="#mc0b26b8ee2" y="1005.340333"/>
      </g>
     </g>
     <g id="text_93">
      <!-- 20 -->
      <g transform="translate(638.752673 1019.938771)scale(0.1 -0.1)">
       <use xlink:href="#DejaVuSans-50"/>
       <use x="63.623047" xlink:href="#DejaVuSans-48"/>
      </g>
     </g>
    </g>
    <g id="xtick_53">
     <g id="line2d_89">
      <g>
       <use style="stroke:#000000;stroke-width:0.8;" x="679.70195" xlink:href="#mc0b26b8ee2" y="1005.340333"/>
      </g>
     </g>
     <g id="text_94">
      <!-- 30 -->
      <g transform="translate(673.33945 1019.938771)scale(0.1 -0.1)">
       <use xlink:href="#DejaVuSans-51"/>
       <use x="63.623047" xlink:href="#DejaVuSans-48"/>
      </g>
     </g>
    </g>
    <g id="xtick_54">
     <g id="line2d_90">
      <g>
       <use style="stroke:#000000;stroke-width:0.8;" x="714.288727" xlink:href="#mc0b26b8ee2" y="1005.340333"/>
      </g>
     </g>
     <g id="text_95">
      <!-- 40 -->
      <g transform="translate(707.926227 1019.938771)scale(0.1 -0.1)">
       <use xlink:href="#DejaVuSans-52"/>
       <use x="63.623047" xlink:href="#DejaVuSans-48"/>
      </g>
     </g>
    </g>
    <g id="text_96">
     <!-- $\Delta_b$ -->
     <g transform="translate(570.091619 1033.616896)scale(0.1 -0.1)">
      <use transform="translate(0 0.09375)" xlink:href="#DejaVuSans-916"/>
      <use transform="translate(69.365234 -16.3125)scale(0.7)" xlink:href="#DejaVuSans-Oblique-98"/>
     </g>
    </g>
   </g>
   <g id="matplotlib.axis_12">
    <g id="ytick_32">
     <g id="line2d_91">
      <g>
       <use style="stroke:#000000;stroke-width:0.8;" x="423.759801" xlink:href="#m4d1cb32587" y="984.054187"/>
      </g>
     </g>
     <g id="text_97">
      <!-- 0.1 -->
      <g transform="translate(400.856676 987.853406)scale(0.1 -0.1)">
       <use xlink:href="#DejaVuSans-48"/>
       <use x="63.623047" xlink:href="#DejaVuSans-46"/>
       <use x="95.410156" xlink:href="#DejaVuSans-49"/>
      </g>
     </g>
    </g>
    <g id="ytick_33">
     <g id="line2d_92">
      <g>
       <use style="stroke:#000000;stroke-width:0.8;" x="423.759801" xlink:href="#m4d1cb32587" y="944.249692"/>
      </g>
     </g>
     <g id="text_98">
      <!-- 0.2 -->
      <g transform="translate(400.856676 948.048911)scale(0.1 -0.1)">
       <use xlink:href="#DejaVuSans-48"/>
       <use x="63.623047" xlink:href="#DejaVuSans-46"/>
       <use x="95.410156" xlink:href="#DejaVuSans-50"/>
      </g>
     </g>
    </g>
    <g id="ytick_34">
     <g id="line2d_93">
      <g>
       <use style="stroke:#000000;stroke-width:0.8;" x="423.759801" xlink:href="#m4d1cb32587" y="904.445197"/>
      </g>
     </g>
     <g id="text_99">
      <!-- 0.3 -->
      <g transform="translate(400.856676 908.244416)scale(0.1 -0.1)">
       <use xlink:href="#DejaVuSans-48"/>
       <use x="63.623047" xlink:href="#DejaVuSans-46"/>
       <use x="95.410156" xlink:href="#DejaVuSans-51"/>
      </g>
     </g>
    </g>
    <g id="ytick_35">
     <g id="line2d_94">
      <g>
       <use style="stroke:#000000;stroke-width:0.8;" x="423.759801" xlink:href="#m4d1cb32587" y="864.640702"/>
      </g>
     </g>
     <g id="text_100">
      <!-- 0.4 -->
      <g transform="translate(400.856676 868.439921)scale(0.1 -0.1)">
       <use xlink:href="#DejaVuSans-48"/>
       <use x="63.623047" xlink:href="#DejaVuSans-46"/>
       <use x="95.410156" xlink:href="#DejaVuSans-52"/>
      </g>
     </g>
    </g>
    <g id="ytick_36">
     <g id="line2d_95">
      <g>
       <use style="stroke:#000000;stroke-width:0.8;" x="423.759801" xlink:href="#m4d1cb32587" y="824.836207"/>
      </g>
     </g>
     <g id="text_101">
      <!-- 0.5 -->
      <g transform="translate(400.856676 828.635426)scale(0.1 -0.1)">
       <use xlink:href="#DejaVuSans-48"/>
       <use x="63.623047" xlink:href="#DejaVuSans-46"/>
       <use x="95.410156" xlink:href="#DejaVuSans-53"/>
      </g>
     </g>
    </g>
    <g id="ytick_37">
     <g id="line2d_96">
      <g>
       <use style="stroke:#000000;stroke-width:0.8;" x="423.759801" xlink:href="#m4d1cb32587" y="785.031712"/>
      </g>
     </g>
     <g id="text_102">
      <!-- 0.6 -->
      <g transform="translate(400.856676 788.83093)scale(0.1 -0.1)">
       <use xlink:href="#DejaVuSans-48"/>
       <use x="63.623047" xlink:href="#DejaVuSans-46"/>
       <use x="95.410156" xlink:href="#DejaVuSans-54"/>
      </g>
     </g>
    </g>
    <g id="ytick_38">
     <g id="line2d_97">
      <g>
       <use style="stroke:#000000;stroke-width:0.8;" x="423.759801" xlink:href="#m4d1cb32587" y="745.227216"/>
      </g>
     </g>
     <g id="text_103">
      <!-- 0.7 -->
      <g transform="translate(400.856676 749.026435)scale(0.1 -0.1)">
       <use xlink:href="#DejaVuSans-48"/>
       <use x="63.623047" xlink:href="#DejaVuSans-46"/>
       <use x="95.410156" xlink:href="#DejaVuSans-55"/>
      </g>
     </g>
    </g>
    <g id="text_104">
     <!-- $t_max$ -->
     <defs>
      <path d="M 42.28125 54.6875 
L 40.921875 47.703125 
L 23 47.703125 
L 17.1875 18.015625 
Q 16.890625 16.359375 16.75 15.234375 
Q 16.609375 14.109375 16.609375 13.484375 
Q 16.609375 10.359375 18.484375 8.9375 
Q 20.359375 7.515625 24.515625 7.515625 
L 33.59375 7.515625 
L 32.078125 0 
L 23.484375 0 
Q 15.484375 0 11.546875 3.125 
Q 7.625 6.25 7.625 12.59375 
Q 7.625 13.71875 7.765625 15.0625 
Q 7.90625 16.40625 8.203125 18.015625 
L 14.015625 47.703125 
L 6.390625 47.703125 
L 7.8125 54.6875 
L 15.28125 54.6875 
L 18.3125 70.21875 
L 27.296875 70.21875 
L 24.3125 54.6875 
z
" id="DejaVuSans-Oblique-116"/>
      <path d="M 89.796875 33.015625 
L 83.40625 0 
L 74.421875 0 
L 80.71875 32.71875 
Q 81.109375 34.8125 81.296875 36.328125 
Q 81.5 37.84375 81.5 38.921875 
Q 81.5 43.3125 79.046875 45.75 
Q 76.609375 48.1875 72.21875 48.1875 
Q 65.671875 48.1875 60.546875 43.28125 
Q 55.421875 38.375 53.90625 30.515625 
L 47.90625 0 
L 38.921875 0 
L 45.3125 32.71875 
Q 45.703125 34.515625 45.890625 36.046875 
Q 46.09375 37.59375 46.09375 38.8125 
Q 46.09375 43.265625 43.65625 45.71875 
Q 41.21875 48.1875 36.921875 48.1875 
Q 30.28125 48.1875 25.140625 43.28125 
Q 20.015625 38.375 18.5 30.515625 
L 12.5 0 
L 3.515625 0 
L 14.203125 54.6875 
L 23.1875 54.6875 
L 21.484375 46.1875 
Q 25.140625 50.984375 30.046875 53.484375 
Q 34.96875 56 40.578125 56 
Q 46.53125 56 50.359375 52.875 
Q 54.203125 49.75 54.984375 44.1875 
Q 59.078125 49.953125 64.46875 52.96875 
Q 69.875 56 75.875 56 
Q 82.90625 56 86.734375 51.953125 
Q 90.578125 47.90625 90.578125 40.484375 
Q 90.578125 38.875 90.375 36.9375 
Q 90.1875 35.015625 89.796875 33.015625 
z
" id="DejaVuSans-Oblique-109"/>
      <path d="M 60.015625 54.6875 
L 34.90625 27.875 
L 50.296875 0 
L 39.984375 0 
L 28.421875 21.6875 
L 8.296875 0 
L -2.59375 0 
L 24.3125 28.8125 
L 10.015625 54.6875 
L 20.3125 54.6875 
L 30.8125 34.90625 
L 49.125 54.6875 
z
" id="DejaVuSans-Oblique-120"/>
     </defs>
     <g transform="translate(394.776989 870.137392)rotate(-90)scale(0.1 -0.1)">
      <use transform="translate(0 0.78125)" xlink:href="#DejaVuSans-Oblique-116"/>
      <use transform="translate(39.208984 -15.625)scale(0.7)" xlink:href="#DejaVuSans-Oblique-109"/>
      <use transform="translate(110.131836 0.78125)" xlink:href="#DejaVuSans-Oblique-97"/>
      <use transform="translate(171.411133 0.78125)" xlink:href="#DejaVuSans-Oblique-120"/>
     </g>
    </g>
   </g>
   <g id="line2d_98">
    <path clip-path="url(#p64611f2f0d)" d="M 437.594512 991.999157 
L 441.09697 991.999157 
L 444.599429 991.999157 
L 448.101887 991.999157 
L 451.604346 988.016716 
L 455.106804 988.016716 
L 458.609262 988.016716 
L 462.111721 988.016716 
L 465.614179 984.034275 
L 469.116638 984.034275 
L 472.619096 984.034275 
L 476.121554 980.051835 
L 479.624013 980.051835 
L 483.126471 980.051835 
L 486.62893 976.069394 
L 490.131388 976.069394 
L 493.633847 972.086953 
L 497.136305 972.086953 
L 500.638763 968.104512 
L 504.141222 964.122072 
L 507.64368 964.122072 
L 511.146139 960.139631 
L 514.648597 956.15719 
L 518.151055 952.174749 
L 521.653514 948.192309 
L 525.155972 944.209868 
L 528.658431 936.244986 
L 532.160889 932.262546 
L 535.663348 924.297664 
L 539.165806 916.332783 
L 542.668264 908.367901 
L 546.170723 896.420579 
L 549.673181 880.490816 
L 553.17564 864.561053 
L 556.678098 844.648849 
L 560.180556 820.754205 
L 563.683015 796.859561 
L 567.185473 765.000035 
L 570.687932 741.10539 
L 574.19039 725.175627 
L 577.692849 725.175627 
L 581.195307 741.10539 
L 584.697765 765.000035 
L 588.200224 796.859561 
L 591.702682 820.754205 
L 595.205141 844.648849 
L 598.707599 864.561053 
L 602.210057 880.490816 
L 605.712516 896.420579 
L 609.214974 908.367901 
L 612.717433 916.332783 
L 616.219891 924.297664 
L 619.72235 932.262546 
L 623.224808 936.244986 
L 626.727266 944.209868 
L 630.229725 948.192309 
L 633.732183 952.174749 
L 637.234642 956.15719 
L 640.7371 960.139631 
L 644.239558 964.122072 
L 647.742017 964.122072 
L 651.244475 968.104512 
L 654.746934 972.086953 
L 658.249392 972.086953 
L 661.751851 976.069394 
L 665.254309 976.069394 
L 668.756767 980.051835 
L 672.259226 980.051835 
L 675.761684 980.051835 
L 679.264143 984.034275 
L 682.766601 984.034275 
L 686.269059 984.034275 
L 689.771518 988.016716 
L 693.273976 988.016716 
L 696.776435 988.016716 
L 700.278893 988.016716 
L 703.781352 991.999157 
L 707.28381 991.999157 
L 710.786268 991.999157 
L 714.288727 991.999157 
" style="fill:none;stroke:#1f77b4;stroke-dasharray:9.6,2.4,1.5,2.4;stroke-dashoffset:0;stroke-width:1.5;"/>
   </g>
   <g id="patch_28">
    <path d="M 423.759801 1005.340333 
L 423.759801 711.834451 
" style="fill:none;stroke:#000000;stroke-linecap:square;stroke-linejoin:miter;stroke-width:0.8;"/>
   </g>
   <g id="patch_29">
    <path d="M 728.123437 1005.340333 
L 728.123437 711.834451 
" style="fill:none;stroke:#000000;stroke-linecap:square;stroke-linejoin:miter;stroke-width:0.8;"/>
   </g>
   <g id="patch_30">
    <path d="M 423.759801 1005.340333 
L 728.123437 1005.340333 
" style="fill:none;stroke:#000000;stroke-linecap:square;stroke-linejoin:miter;stroke-width:0.8;"/>
   </g>
   <g id="patch_31">
    <path d="M 423.759801 711.834451 
L 728.123437 711.834451 
" style="fill:none;stroke:#000000;stroke-linecap:square;stroke-linejoin:miter;stroke-width:0.8;"/>
   </g>
  </g>
 </g>
 <defs>
  <clipPath id="pb4f17784df">
   <rect height="293.505882" width="304.363636" x="58.523438" y="7.420333"/>
  </clipPath>
  <clipPath id="peea9c56a02">
   <rect height="293.505882" width="304.363636" x="423.759801" y="7.420333"/>
  </clipPath>
  <clipPath id="p85a18a8c15">
   <rect height="293.505882" width="304.363636" x="58.523438" y="359.627392"/>
  </clipPath>
  <clipPath id="pf71fb8304d">
   <rect height="293.505882" width="304.363636" x="423.759801" y="359.627392"/>
  </clipPath>
  <clipPath id="pab203362bb">
   <rect height="293.505882" width="304.363636" x="58.523438" y="711.834451"/>
  </clipPath>
  <clipPath id="p64611f2f0d">
   <rect height="293.505882" width="304.363636" x="423.759801" y="711.834451"/>
  </clipPath>
 </defs>
</svg>
